<svg width="600" height="600" viewBox="0 0 600 600" fill="none" xmlns="http://www.w3.org/2000/svg">
<path d="M468.404 568V559.424H469.604V561.056L469.412 560.816C469.647 560.315 469.993 559.925 470.452 559.648C470.921 559.371 471.433 559.232 471.988 559.232C472.649 559.232 473.247 559.419 473.78 559.792C474.313 560.165 474.692 560.651 474.916 561.248L474.58 561.264C474.793 560.603 475.161 560.101 475.684 559.76C476.217 559.408 476.804 559.232 477.444 559.232C478.02 559.232 478.548 559.371 479.028 559.648C479.519 559.925 479.908 560.309 480.196 560.8C480.495 561.28 480.644 561.824 480.644 562.432V568H479.444V562.896C479.444 562.373 479.348 561.931 479.156 561.568C478.975 561.205 478.724 560.928 478.404 560.736C478.084 560.533 477.716 560.432 477.3 560.432C476.895 560.432 476.527 560.533 476.196 560.736C475.865 560.928 475.604 561.211 475.412 561.584C475.22 561.947 475.124 562.384 475.124 562.896V568H473.924V562.896C473.924 562.373 473.828 561.931 473.636 561.568C473.455 561.205 473.204 560.928 472.884 560.736C472.564 560.533 472.196 560.432 471.78 560.432C471.364 560.432 470.991 560.533 470.66 560.736C470.34 560.928 470.084 561.211 469.892 561.584C469.7 561.947 469.604 562.384 469.604 562.896V568H468.404ZM482.955 571.52C482.784 571.52 482.608 571.504 482.427 571.472C482.256 571.451 482.086 571.408 481.915 571.344V570.224C482.022 570.235 482.155 570.251 482.315 570.272C482.486 570.304 482.656 570.32 482.827 570.32C483.35 570.32 483.75 570.208 484.027 569.984C484.304 569.771 484.576 569.355 484.843 568.736L485.387 567.456L485.355 568.512L481.723 559.424H483.019L485.995 566.928H485.659L488.619 559.424H489.947L486.027 569.088C485.856 569.504 485.638 569.899 485.371 570.272C485.115 570.645 484.79 570.944 484.395 571.168C484 571.403 483.52 571.52 482.955 571.52ZM491.533 568V556.08H495.453C496.637 556.08 497.666 556.325 498.541 556.816C499.416 557.296 500.093 557.984 500.573 558.88C501.053 559.765 501.293 560.816 501.293 562.032C501.293 563.237 501.053 564.288 500.573 565.184C500.093 566.08 499.416 566.773 498.541 567.264C497.666 567.755 496.637 568 495.453 568H491.533ZM492.813 566.8H495.453C496.37 566.8 497.165 566.608 497.837 566.224C498.509 565.829 499.026 565.275 499.389 564.56C499.762 563.845 499.949 563.003 499.949 562.032C499.949 561.061 499.762 560.224 499.389 559.52C499.016 558.805 498.493 558.256 497.821 557.872C497.149 557.477 496.36 557.28 495.453 557.28H492.813V566.8ZM503.232 568V559.424H504.432V568H503.232ZM503.232 557.84V556.08H504.432V557.84H503.232ZM510.952 571.52C510.366 571.52 509.822 571.429 509.32 571.248C508.83 571.067 508.403 570.816 508.04 570.496C507.688 570.187 507.416 569.824 507.224 569.408L508.328 568.816C508.499 569.221 508.803 569.573 509.24 569.872C509.678 570.171 510.238 570.32 510.92 570.32C511.443 570.32 511.923 570.219 512.36 570.016C512.798 569.813 513.15 569.515 513.416 569.12C513.683 568.725 513.816 568.24 513.816 567.664V565.76L514.008 565.936C513.71 566.555 513.267 567.035 512.68 567.376C512.094 567.707 511.454 567.872 510.76 567.872C509.96 567.872 509.24 567.68 508.6 567.296C507.96 566.912 507.454 566.395 507.08 565.744C506.718 565.083 506.536 564.352 506.536 563.552C506.536 562.741 506.718 562.011 507.08 561.36C507.454 560.709 507.955 560.192 508.584 559.808C509.224 559.424 509.95 559.232 510.76 559.232C511.454 559.232 512.083 559.392 512.648 559.712C513.224 560.032 513.678 560.464 514.008 561.008L513.816 561.344V559.424H515.016V567.664C515.016 568.4 514.84 569.056 514.488 569.632C514.147 570.219 513.667 570.677 513.048 571.008C512.44 571.349 511.742 571.52 510.952 571.52ZM510.824 566.672C511.379 566.672 511.88 566.533 512.328 566.256C512.776 565.968 513.134 565.589 513.4 565.12C513.678 564.64 513.816 564.117 513.816 563.552C513.816 562.987 513.678 562.469 513.4 562C513.134 561.52 512.776 561.141 512.328 560.864C511.88 560.576 511.379 560.432 510.824 560.432C510.259 560.432 509.747 560.576 509.288 560.864C508.83 561.141 508.467 561.515 508.2 561.984C507.944 562.453 507.816 562.976 507.816 563.552C507.816 564.117 507.944 564.64 508.2 565.12C508.467 565.589 508.824 565.968 509.272 566.256C509.731 566.533 510.248 566.672 510.824 566.672ZM517.482 568V559.424H518.682V568H517.482ZM517.482 557.84V556.08H518.682V557.84H517.482ZM521.314 568V556.08H522.594V566.8H527.874V568H521.314ZM533.542 568.192C532.742 568.192 532.017 568 531.366 567.616C530.726 567.221 530.22 566.683 529.846 566C529.473 565.317 529.286 564.544 529.286 563.68C529.286 562.816 529.468 562.053 529.83 561.392C530.193 560.72 530.684 560.192 531.302 559.808C531.932 559.424 532.636 559.232 533.414 559.232C534.033 559.232 534.582 559.349 535.062 559.584C535.553 559.808 535.969 560.117 536.31 560.512C536.652 560.896 536.913 561.333 537.094 561.824C537.276 562.304 537.366 562.8 537.366 563.312C537.366 563.419 537.361 563.541 537.35 563.68C537.34 563.808 537.324 563.941 537.302 564.08H530.054V562.96H536.614L536.038 563.44C536.134 562.853 536.065 562.331 535.83 561.872C535.606 561.403 535.281 561.035 534.854 560.768C534.428 560.491 533.948 560.352 533.414 560.352C532.881 560.352 532.385 560.491 531.926 560.768C531.478 561.045 531.126 561.435 530.87 561.936C530.614 562.427 530.513 563.013 530.566 563.696C530.513 564.379 530.62 564.976 530.886 565.488C531.164 565.989 531.537 566.379 532.006 566.656C532.486 566.933 532.998 567.072 533.542 567.072C534.172 567.072 534.7 566.923 535.126 566.624C535.553 566.325 535.9 565.952 536.166 565.504L537.19 566.048C537.02 566.432 536.758 566.789 536.406 567.12C536.054 567.44 535.633 567.701 535.142 567.904C534.662 568.096 534.129 568.192 533.542 568.192ZM541.806 568.192C541.262 568.192 540.776 568.091 540.35 567.888C539.923 567.675 539.587 567.387 539.342 567.024C539.096 566.661 538.974 566.245 538.974 565.776C538.974 565.328 539.07 564.923 539.262 564.56C539.454 564.187 539.752 563.872 540.158 563.616C540.563 563.36 541.08 563.179 541.71 563.072L545.07 562.512V563.6L541.998 564.112C541.379 564.219 540.931 564.416 540.654 564.704C540.387 564.992 540.254 565.333 540.254 565.728C540.254 566.112 540.403 566.437 540.702 566.704C541.011 566.971 541.406 567.104 541.886 567.104C542.472 567.104 542.984 566.981 543.422 566.736C543.859 566.48 544.2 566.139 544.446 565.712C544.691 565.285 544.814 564.811 544.814 564.288V562.112C544.814 561.6 544.627 561.184 544.254 560.864C543.88 560.544 543.395 560.384 542.798 560.384C542.275 560.384 541.816 560.517 541.422 560.784C541.027 561.04 540.734 561.376 540.542 561.792L539.454 561.2C539.614 560.837 539.864 560.507 540.206 560.208C540.558 559.909 540.958 559.675 541.406 559.504C541.854 559.323 542.318 559.232 542.798 559.232C543.427 559.232 543.982 559.355 544.462 559.6C544.952 559.845 545.331 560.187 545.598 560.624C545.875 561.051 546.014 561.547 546.014 562.112V568H544.814V566.288L544.99 566.464C544.84 566.784 544.606 567.077 544.286 567.344C543.976 567.6 543.608 567.808 543.182 567.968C542.766 568.117 542.307 568.192 541.806 568.192ZM548.482 568V559.424H549.682V560.832L549.522 560.624C549.725 560.219 550.029 559.899 550.434 559.664C550.85 559.429 551.351 559.312 551.938 559.312H552.482V560.512H551.73C551.111 560.512 550.615 560.704 550.242 561.088C549.869 561.472 549.682 562.016 549.682 562.72V568H548.482ZM553.888 568V559.424H555.088V561.088L554.816 561.024C555.03 560.469 555.376 560.032 555.856 559.712C556.347 559.392 556.912 559.232 557.552 559.232C558.16 559.232 558.704 559.371 559.184 559.648C559.675 559.925 560.059 560.309 560.336 560.8C560.624 561.28 560.768 561.824 560.768 562.432V568H559.568V562.896C559.568 562.373 559.472 561.931 559.28 561.568C559.099 561.205 558.838 560.928 558.496 560.736C558.166 560.533 557.782 560.432 557.344 560.432C556.907 560.432 556.518 560.533 556.176 560.736C555.835 560.928 555.568 561.211 555.376 561.584C555.184 561.947 555.088 562.384 555.088 562.896V568H553.888Z" fill="white"/>
<path d="M485.669 498.068H543.468C545.104 498.068 546.672 498.718 547.829 499.875C548.986 501.032 549.637 502.601 549.637 504.237V522.021C549.637 523.658 548.986 525.227 547.829 526.384C546.672 527.54 545.104 528.19 543.468 528.19H517.639V536.971H545.926C546.678 536.971 547.399 537.269 547.931 537.801C548.462 538.332 548.761 539.054 548.761 539.806C548.761 540.557 548.462 541.278 547.931 541.81C547.399 542.341 546.678 542.64 545.926 542.64H483.682C482.93 542.64 482.209 542.341 481.678 541.81C481.146 541.278 480.847 540.557 480.847 539.806C480.847 539.054 481.146 538.332 481.678 537.801C482.209 537.269 482.93 536.971 483.682 536.971H511.97V528.19H485.669C484.033 528.19 482.464 527.541 481.307 526.384C480.15 525.227 479.5 523.658 479.5 522.021V504.237C479.5 502.601 480.15 501.032 481.307 499.875C482.464 498.718 484.033 498.068 485.669 498.068ZM492.573 508.184C491.262 508.184 490.004 508.704 489.076 509.632C488.149 510.559 487.628 511.817 487.628 513.129C487.628 514.441 488.149 515.699 489.076 516.627C490.004 517.554 491.262 518.075 492.573 518.075C493.885 518.075 495.144 517.554 496.071 516.627C496.999 515.699 497.52 514.441 497.52 513.129C497.519 511.817 496.999 510.559 496.071 509.632C495.144 508.704 493.885 508.184 492.573 508.184ZM505.912 508.184C504.6 508.184 503.342 508.704 502.414 509.632C501.487 510.559 500.966 511.817 500.966 513.129C500.966 514.441 501.487 515.699 502.414 516.627C503.342 517.555 504.6 518.075 505.912 518.075C507.224 518.075 508.482 517.554 509.409 516.627C510.337 515.699 510.857 514.441 510.857 513.129C510.857 511.817 510.337 510.559 509.409 509.632C508.482 508.704 507.224 508.184 505.912 508.184ZM485.669 462.5H543.468C545.104 462.5 546.672 463.15 547.829 464.307C548.986 465.464 549.637 467.033 549.637 468.669V486.453C549.637 488.089 548.986 489.659 547.829 490.815C546.672 491.972 545.104 492.622 543.468 492.622H485.669C484.033 492.622 482.464 491.972 481.307 490.815C480.15 489.659 479.5 488.089 479.5 486.453V468.669C479.5 467.033 480.15 465.464 481.307 464.307C482.391 463.222 483.838 462.583 485.363 462.508L485.669 462.5ZM492.573 472.615C491.262 472.615 490.004 473.136 489.076 474.063C488.149 474.991 487.628 476.25 487.628 477.562C487.628 478.873 488.149 480.131 489.076 481.059C490.004 481.986 491.262 482.507 492.573 482.507C493.885 482.507 495.144 481.986 496.071 481.059C496.999 480.131 497.519 478.873 497.52 477.562C497.52 476.25 496.999 474.991 496.071 474.063C495.144 473.136 493.885 472.615 492.573 472.615ZM505.912 472.615C504.6 472.615 503.342 473.136 502.414 474.063C501.487 474.991 500.966 476.25 500.966 477.562C500.966 478.873 501.487 480.131 502.414 481.059C503.342 481.986 504.6 482.507 505.912 482.507C507.224 482.507 508.482 481.986 509.409 481.059C510.337 480.131 510.857 478.873 510.857 477.562C510.857 476.25 510.337 474.991 509.409 474.063C508.482 473.136 507.224 472.615 505.912 472.615Z" fill="#791204" stroke="#E5DADA"/>
<path d="M252.541 567V555.08H256.461C257.645 555.08 258.674 555.325 259.549 555.816C260.423 556.296 261.101 556.984 261.581 557.88C262.061 558.765 262.301 559.816 262.301 561.032C262.301 562.237 262.061 563.288 261.581 564.184C261.101 565.08 260.423 565.773 259.549 566.264C258.674 566.755 257.645 567 256.461 567H252.541ZM253.821 565.8H256.461C257.378 565.8 258.173 565.608 258.845 565.224C259.517 564.829 260.034 564.275 260.397 563.56C260.77 562.845 260.957 562.003 260.957 561.032C260.957 560.061 260.77 559.224 260.397 558.52C260.023 557.805 259.501 557.256 258.829 556.872C258.157 556.477 257.367 556.28 256.461 556.28H253.821V565.8ZM266.564 567.192C266.02 567.192 265.534 567.091 265.108 566.888C264.681 566.675 264.345 566.387 264.1 566.024C263.854 565.661 263.732 565.245 263.732 564.776C263.732 564.328 263.828 563.923 264.02 563.56C264.212 563.187 264.51 562.872 264.916 562.616C265.321 562.36 265.838 562.179 266.468 562.072L269.828 561.512V562.6L266.756 563.112C266.137 563.219 265.689 563.416 265.412 563.704C265.145 563.992 265.012 564.333 265.012 564.728C265.012 565.112 265.161 565.437 265.46 565.704C265.769 565.971 266.164 566.104 266.644 566.104C267.23 566.104 267.742 565.981 268.18 565.736C268.617 565.48 268.958 565.139 269.204 564.712C269.449 564.285 269.572 563.811 269.572 563.288V561.112C269.572 560.6 269.385 560.184 269.012 559.864C268.638 559.544 268.153 559.384 267.556 559.384C267.033 559.384 266.574 559.517 266.18 559.784C265.785 560.04 265.492 560.376 265.3 560.792L264.212 560.2C264.372 559.837 264.622 559.507 264.964 559.208C265.316 558.909 265.716 558.675 266.164 558.504C266.612 558.323 267.076 558.232 267.556 558.232C268.185 558.232 268.74 558.355 269.22 558.6C269.71 558.845 270.089 559.187 270.356 559.624C270.633 560.051 270.772 560.547 270.772 561.112V567H269.572V565.288L269.748 565.464C269.598 565.784 269.364 566.077 269.044 566.344C268.734 566.6 268.366 566.808 267.94 566.968C267.524 567.117 267.065 567.192 266.564 567.192ZM276.364 567.096C275.596 567.096 275.004 566.872 274.588 566.424C274.172 565.976 273.964 565.336 273.964 564.504V559.624H272.38V558.424H272.78C273.142 558.424 273.43 558.307 273.644 558.072C273.857 557.827 273.964 557.523 273.964 557.16V556.44H275.164V558.424H277.052V559.624H275.164V564.504C275.164 564.792 275.206 565.048 275.292 565.272C275.377 565.485 275.521 565.656 275.724 565.784C275.937 565.912 276.22 565.976 276.572 565.976C276.657 565.976 276.758 565.971 276.876 565.96C276.993 565.949 277.094 565.939 277.18 565.928V567C277.052 567.032 276.908 567.053 276.748 567.064C276.588 567.085 276.46 567.096 276.364 567.096ZM281.61 567.192C281.066 567.192 280.581 567.091 280.154 566.888C279.728 566.675 279.392 566.387 279.146 566.024C278.901 565.661 278.778 565.245 278.778 564.776C278.778 564.328 278.874 563.923 279.066 563.56C279.258 563.187 279.557 562.872 279.962 562.616C280.368 562.36 280.885 562.179 281.514 562.072L284.874 561.512V562.6L281.802 563.112C281.184 563.219 280.736 563.416 280.458 563.704C280.192 563.992 280.058 564.333 280.058 564.728C280.058 565.112 280.208 565.437 280.506 565.704C280.816 565.971 281.21 566.104 281.69 566.104C282.277 566.104 282.789 565.981 283.226 565.736C283.664 565.48 284.005 565.139 284.25 564.712C284.496 564.285 284.618 563.811 284.618 563.288V561.112C284.618 560.6 284.432 560.184 284.058 559.864C283.685 559.544 283.2 559.384 282.602 559.384C282.08 559.384 281.621 559.517 281.226 559.784C280.832 560.04 280.538 560.376 280.346 560.792L279.258 560.2C279.418 559.837 279.669 559.507 280.01 559.208C280.362 558.909 280.762 558.675 281.21 558.504C281.658 558.323 282.122 558.232 282.602 558.232C283.232 558.232 283.786 558.355 284.266 558.6C284.757 558.845 285.136 559.187 285.402 559.624C285.68 560.051 285.818 560.547 285.818 561.112V567H284.618V565.288L284.794 565.464C284.645 565.784 284.41 566.077 284.09 566.344C283.781 566.6 283.413 566.808 282.986 566.968C282.57 567.117 282.112 567.192 281.61 567.192ZM292.623 567.192C291.887 567.192 291.22 567.027 290.623 566.696C290.036 566.355 289.593 565.875 289.295 565.256L289.487 565.08V567H288.287V554.888H289.487V560.344L289.295 560.008C289.636 559.464 290.089 559.032 290.655 558.712C291.231 558.392 291.887 558.232 292.623 558.232C293.433 558.232 294.153 558.429 294.783 558.824C295.423 559.208 295.924 559.736 296.287 560.408C296.66 561.08 296.847 561.848 296.847 562.712C296.847 563.565 296.66 564.333 296.287 565.016C295.924 565.688 295.423 566.221 294.783 566.616C294.153 567 293.433 567.192 292.623 567.192ZM292.559 565.992C293.135 565.992 293.647 565.848 294.095 565.56C294.553 565.272 294.911 564.883 295.167 564.392C295.433 563.891 295.567 563.331 295.567 562.712C295.567 562.083 295.433 561.523 295.167 561.032C294.911 560.541 294.553 560.152 294.095 559.864C293.647 559.576 293.135 559.432 292.559 559.432C291.983 559.432 291.46 559.576 290.991 559.864C290.532 560.152 290.164 560.547 289.887 561.048C289.62 561.539 289.487 562.093 289.487 562.712C289.487 563.331 289.62 563.891 289.887 564.392C290.164 564.883 290.532 565.272 290.991 565.56C291.46 565.848 291.983 565.992 292.559 565.992ZM301.439 567.192C300.895 567.192 300.409 567.091 299.983 566.888C299.556 566.675 299.22 566.387 298.975 566.024C298.729 565.661 298.607 565.245 298.607 564.776C298.607 564.328 298.703 563.923 298.895 563.56C299.087 563.187 299.385 562.872 299.791 562.616C300.196 562.36 300.713 562.179 301.343 562.072L304.703 561.512V562.6L301.631 563.112C301.012 563.219 300.564 563.416 300.287 563.704C300.02 563.992 299.887 564.333 299.887 564.728C299.887 565.112 300.036 565.437 300.335 565.704C300.644 565.971 301.039 566.104 301.519 566.104C302.105 566.104 302.617 565.981 303.055 565.736C303.492 565.48 303.833 565.139 304.079 564.712C304.324 564.285 304.447 563.811 304.447 563.288V561.112C304.447 560.6 304.26 560.184 303.887 559.864C303.513 559.544 303.028 559.384 302.431 559.384C301.908 559.384 301.449 559.517 301.055 559.784C300.66 560.04 300.367 560.376 300.175 560.792L299.087 560.2C299.247 559.837 299.497 559.507 299.839 559.208C300.191 558.909 300.591 558.675 301.039 558.504C301.487 558.323 301.951 558.232 302.431 558.232C303.06 558.232 303.615 558.355 304.095 558.6C304.585 558.845 304.964 559.187 305.231 559.624C305.508 560.051 305.647 560.547 305.647 561.112V567H304.447V565.288L304.623 565.464C304.473 565.784 304.239 566.077 303.919 566.344C303.609 566.6 303.241 566.808 302.815 566.968C302.399 567.117 301.94 567.192 301.439 567.192ZM311.091 567.192C310.269 567.192 309.549 566.984 308.931 566.568C308.312 566.152 307.864 565.587 307.587 564.872L308.595 564.392C308.84 564.915 309.181 565.331 309.619 565.64C310.067 565.949 310.557 566.104 311.091 566.104C311.603 566.104 312.035 565.981 312.387 565.736C312.739 565.48 312.915 565.149 312.915 564.744C312.915 564.445 312.829 564.211 312.659 564.04C312.488 563.859 312.291 563.72 312.067 563.624C311.843 563.528 311.645 563.459 311.475 563.416L310.243 563.064C309.453 562.84 308.883 562.525 308.531 562.12C308.179 561.715 308.003 561.245 308.003 560.712C308.003 560.211 308.131 559.773 308.387 559.4C308.643 559.027 308.989 558.739 309.427 558.536C309.864 558.333 310.349 558.232 310.883 558.232C311.608 558.232 312.264 558.424 312.851 558.808C313.448 559.181 313.869 559.704 314.115 560.376L313.091 560.856C312.877 560.376 312.568 560.003 312.163 559.736C311.768 559.459 311.325 559.32 310.835 559.32C310.355 559.32 309.971 559.443 309.683 559.688C309.395 559.933 309.251 560.243 309.251 560.616C309.251 560.904 309.325 561.133 309.475 561.304C309.624 561.475 309.795 561.603 309.987 561.688C310.189 561.773 310.365 561.837 310.515 561.88L311.939 562.296C312.632 562.499 313.171 562.813 313.555 563.24C313.949 563.667 314.147 564.168 314.147 564.744C314.147 565.213 314.013 565.635 313.747 566.008C313.491 566.381 313.133 566.675 312.675 566.888C312.216 567.091 311.688 567.192 311.091 567.192ZM320.159 567.192C319.359 567.192 318.634 567 317.983 566.616C317.343 566.221 316.837 565.683 316.463 565C316.09 564.317 315.903 563.544 315.903 562.68C315.903 561.816 316.085 561.053 316.447 560.392C316.81 559.72 317.301 559.192 317.919 558.808C318.549 558.424 319.253 558.232 320.031 558.232C320.65 558.232 321.199 558.349 321.679 558.584C322.17 558.808 322.586 559.117 322.927 559.512C323.269 559.896 323.53 560.333 323.711 560.824C323.893 561.304 323.983 561.8 323.983 562.312C323.983 562.419 323.978 562.541 323.967 562.68C323.957 562.808 323.941 562.941 323.919 563.08H316.671V561.96H323.231L322.655 562.44C322.751 561.853 322.682 561.331 322.447 560.872C322.223 560.403 321.898 560.035 321.471 559.768C321.045 559.491 320.565 559.352 320.031 559.352C319.498 559.352 319.002 559.491 318.543 559.768C318.095 560.045 317.743 560.435 317.487 560.936C317.231 561.427 317.13 562.013 317.183 562.696C317.13 563.379 317.237 563.976 317.503 564.488C317.781 564.989 318.154 565.379 318.623 565.656C319.103 565.933 319.615 566.072 320.159 566.072C320.789 566.072 321.317 565.923 321.743 565.624C322.17 565.325 322.517 564.952 322.783 564.504L323.807 565.048C323.637 565.432 323.375 565.789 323.023 566.12C322.671 566.44 322.25 566.701 321.759 566.904C321.279 567.096 320.746 567.192 320.159 567.192Z" fill="white"/>
<path d="M247.5 509.576C248.076 510.464 248.883 511.306 249.879 512.091C251.994 513.758 255.025 515.237 258.725 516.471C266.13 518.939 276.328 520.457 287.57 520.457C298.812 520.457 309.01 518.939 316.415 516.471C320.115 515.237 323.146 513.758 325.262 512.091C326.258 511.306 327.064 510.464 327.64 509.577V529.616C327.64 531.265 326.639 532.915 324.643 534.488C322.652 536.057 319.741 537.491 316.1 538.705C308.821 541.131 298.735 542.64 287.57 542.64C276.406 542.64 266.319 541.131 259.041 538.705C255.4 537.491 252.488 536.057 250.498 534.488C248.502 532.915 247.5 531.265 247.5 529.616V509.576ZM247.5 480.598C248.076 481.485 248.883 482.327 249.879 483.112C251.994 484.779 255.025 486.259 258.725 487.492C266.13 489.961 276.328 491.479 287.57 491.479C298.812 491.478 309.01 489.96 316.415 487.492C320.115 486.259 323.146 484.78 325.262 483.112C326.258 482.327 327.064 481.486 327.64 480.599V500.638C327.64 502.286 326.639 503.937 324.643 505.51C322.652 507.078 319.741 508.513 316.1 509.727C308.821 512.153 298.735 513.661 287.57 513.661C276.406 513.661 266.319 512.153 259.041 509.727C255.4 508.513 252.488 507.078 250.498 505.51C248.502 503.937 247.5 502.286 247.5 500.638V480.598ZM287.57 462.5C298.205 462.5 307.814 463.794 314.748 465.874C318.218 466.915 320.99 468.145 322.883 469.487C324.789 470.839 325.708 472.234 325.708 473.592C325.708 474.95 324.788 476.344 322.883 477.695C320.99 479.038 318.218 480.269 314.748 481.31C307.814 483.39 298.205 484.683 287.57 484.683C276.935 484.683 267.326 483.39 260.393 481.31C256.923 480.269 254.151 479.038 252.258 477.695C250.352 476.343 249.432 474.95 249.432 473.592C249.432 472.234 250.352 470.839 252.258 469.487C254.151 468.145 256.923 466.915 260.393 465.874C267.326 463.794 276.935 462.5 287.57 462.5Z" fill="#6155F5" stroke="#E5DADA"/>
<path d="M258.278 151.192C257.435 151.192 256.662 151.043 255.958 150.744C255.254 150.435 254.64 150.008 254.118 149.464C253.606 148.909 253.206 148.259 252.918 147.512C252.63 146.765 252.486 145.944 252.486 145.048C252.486 144.152 252.63 143.331 252.918 142.584C253.206 141.837 253.606 141.187 254.118 140.632C254.64 140.077 255.254 139.651 255.958 139.352C256.662 139.043 257.435 138.888 258.278 138.888C259.088 138.888 259.814 139.032 260.454 139.32C261.104 139.608 261.648 139.981 262.086 140.44C262.534 140.888 262.854 141.363 263.046 141.864L261.894 142.424C261.595 141.699 261.136 141.128 260.518 140.712C259.899 140.296 259.152 140.088 258.278 140.088C257.403 140.088 256.624 140.296 255.942 140.712C255.259 141.128 254.726 141.709 254.342 142.456C253.958 143.192 253.766 144.056 253.766 145.048C253.766 146.029 253.958 146.893 254.342 147.64C254.726 148.387 255.259 148.968 255.942 149.384C256.624 149.789 257.403 149.992 258.278 149.992C259.056 149.992 259.755 149.821 260.374 149.48C261.003 149.139 261.499 148.675 261.862 148.088C262.224 147.491 262.406 146.808 262.406 146.04V145.384L262.982 145.96H258.278V144.84H263.686V145.832C263.686 146.611 263.547 147.331 263.27 147.992C262.992 148.643 262.608 149.208 262.118 149.688C261.627 150.168 261.051 150.541 260.39 150.808C259.739 151.064 259.035 151.192 258.278 151.192ZM269.706 151.192C268.906 151.192 268.181 151 267.53 150.616C266.89 150.221 266.384 149.683 266.01 149C265.637 148.317 265.45 147.544 265.45 146.68C265.45 145.816 265.632 145.053 265.994 144.392C266.357 143.72 266.848 143.192 267.466 142.808C268.096 142.424 268.8 142.232 269.578 142.232C270.197 142.232 270.746 142.349 271.226 142.584C271.717 142.808 272.133 143.117 272.474 143.512C272.816 143.896 273.077 144.333 273.258 144.824C273.44 145.304 273.53 145.8 273.53 146.312C273.53 146.419 273.525 146.541 273.514 146.68C273.504 146.808 273.488 146.941 273.466 147.08H266.218V145.96H272.778L272.202 146.44C272.298 145.853 272.229 145.331 271.994 144.872C271.77 144.403 271.445 144.035 271.018 143.768C270.592 143.491 270.112 143.352 269.578 143.352C269.045 143.352 268.549 143.491 268.09 143.768C267.642 144.045 267.29 144.435 267.034 144.936C266.778 145.427 266.677 146.013 266.73 146.696C266.677 147.379 266.784 147.976 267.05 148.488C267.328 148.989 267.701 149.379 268.17 149.656C268.65 149.933 269.162 150.072 269.706 150.072C270.336 150.072 270.864 149.923 271.29 149.624C271.717 149.325 272.064 148.952 272.33 148.504L273.354 149.048C273.184 149.432 272.922 149.789 272.57 150.12C272.218 150.44 271.797 150.701 271.306 150.904C270.826 151.096 270.293 151.192 269.706 151.192ZM275.646 151V142.424H276.846V144.088L276.574 144.024C276.787 143.469 277.134 143.032 277.614 142.712C278.105 142.392 278.67 142.232 279.31 142.232C279.918 142.232 280.462 142.371 280.942 142.648C281.433 142.925 281.817 143.309 282.094 143.8C282.382 144.28 282.526 144.824 282.526 145.432V151H281.326V145.896C281.326 145.373 281.23 144.931 281.038 144.568C280.857 144.205 280.595 143.928 280.254 143.736C279.923 143.533 279.539 143.432 279.102 143.432C278.665 143.432 278.275 143.533 277.934 143.736C277.593 143.928 277.326 144.211 277.134 144.584C276.942 144.947 276.846 145.384 276.846 145.896V151H275.646ZM288.722 151.192C287.922 151.192 287.197 151 286.546 150.616C285.906 150.221 285.399 149.683 285.026 149C284.653 148.317 284.466 147.544 284.466 146.68C284.466 145.816 284.647 145.053 285.01 144.392C285.373 143.72 285.863 143.192 286.482 142.808C287.111 142.424 287.815 142.232 288.594 142.232C289.213 142.232 289.762 142.349 290.242 142.584C290.733 142.808 291.149 143.117 291.49 143.512C291.831 143.896 292.093 144.333 292.274 144.824C292.455 145.304 292.546 145.8 292.546 146.312C292.546 146.419 292.541 146.541 292.53 146.68C292.519 146.808 292.503 146.941 292.482 147.08H285.234V145.96H291.794L291.218 146.44C291.314 145.853 291.245 145.331 291.01 144.872C290.786 144.403 290.461 144.035 290.034 143.768C289.607 143.491 289.127 143.352 288.594 143.352C288.061 143.352 287.565 143.491 287.106 143.768C286.658 144.045 286.306 144.435 286.05 144.936C285.794 145.427 285.693 146.013 285.746 146.696C285.693 147.379 285.799 147.976 286.066 148.488C286.343 148.989 286.717 149.379 287.186 149.656C287.666 149.933 288.178 150.072 288.722 150.072C289.351 150.072 289.879 149.923 290.306 149.624C290.733 149.325 291.079 148.952 291.346 148.504L292.37 149.048C292.199 149.432 291.938 149.789 291.586 150.12C291.234 150.44 290.813 150.701 290.322 150.904C289.842 151.096 289.309 151.192 288.722 151.192ZM294.662 151V142.424H295.862V143.832L295.702 143.624C295.904 143.219 296.208 142.899 296.614 142.664C297.03 142.429 297.531 142.312 298.118 142.312H298.662V143.512H297.91C297.291 143.512 296.795 143.704 296.422 144.088C296.048 144.472 295.862 145.016 295.862 145.72V151H294.662ZM302.548 151.192C302.004 151.192 301.519 151.091 301.092 150.888C300.665 150.675 300.329 150.387 300.084 150.024C299.839 149.661 299.716 149.245 299.716 148.776C299.716 148.328 299.812 147.923 300.004 147.56C300.196 147.187 300.495 146.872 300.9 146.616C301.305 146.36 301.823 146.179 302.452 146.072L305.812 145.512V146.6L302.74 147.112C302.121 147.219 301.673 147.416 301.396 147.704C301.129 147.992 300.996 148.333 300.996 148.728C300.996 149.112 301.145 149.437 301.444 149.704C301.753 149.971 302.148 150.104 302.628 150.104C303.215 150.104 303.727 149.981 304.164 149.736C304.601 149.48 304.943 149.139 305.188 148.712C305.433 148.285 305.556 147.811 305.556 147.288V145.112C305.556 144.6 305.369 144.184 304.996 143.864C304.623 143.544 304.137 143.384 303.54 143.384C303.017 143.384 302.559 143.517 302.164 143.784C301.769 144.04 301.476 144.376 301.284 144.792L300.196 144.2C300.356 143.837 300.607 143.507 300.948 143.208C301.3 142.909 301.7 142.675 302.148 142.504C302.596 142.323 303.06 142.232 303.54 142.232C304.169 142.232 304.724 142.355 305.204 142.6C305.695 142.845 306.073 143.187 306.34 143.624C306.617 144.051 306.756 144.547 306.756 145.112V151H305.556V149.288L305.732 149.464C305.583 149.784 305.348 150.077 305.028 150.344C304.719 150.6 304.351 150.808 303.924 150.968C303.508 151.117 303.049 151.192 302.548 151.192ZM312.348 151.096C311.58 151.096 310.988 150.872 310.572 150.424C310.156 149.976 309.948 149.336 309.948 148.504V143.624H308.364V142.424H308.764C309.127 142.424 309.415 142.307 309.628 142.072C309.841 141.827 309.948 141.523 309.948 141.16V140.44H311.148V142.424H313.036V143.624H311.148V148.504C311.148 148.792 311.191 149.048 311.276 149.272C311.361 149.485 311.505 149.656 311.708 149.784C311.921 149.912 312.204 149.976 312.556 149.976C312.641 149.976 312.743 149.971 312.86 149.96C312.977 149.949 313.079 149.939 313.164 149.928V151C313.036 151.032 312.892 151.053 312.732 151.064C312.572 151.085 312.444 151.096 312.348 151.096ZM318.863 151.192C318.063 151.192 317.337 151 316.687 150.616C316.047 150.221 315.54 149.683 315.167 149C314.793 148.317 314.607 147.544 314.607 146.68C314.607 145.816 314.788 145.053 315.151 144.392C315.513 143.72 316.004 143.192 316.623 142.808C317.252 142.424 317.956 142.232 318.735 142.232C319.353 142.232 319.903 142.349 320.383 142.584C320.873 142.808 321.289 143.117 321.631 143.512C321.972 143.896 322.233 144.333 322.415 144.824C322.596 145.304 322.687 145.8 322.687 146.312C322.687 146.419 322.681 146.541 322.671 146.68C322.66 146.808 322.644 146.941 322.623 147.08H315.375V145.96H321.935L321.359 146.44C321.455 145.853 321.385 145.331 321.151 144.872C320.927 144.403 320.601 144.035 320.175 143.768C319.748 143.491 319.268 143.352 318.735 143.352C318.201 143.352 317.705 143.491 317.247 143.768C316.799 144.045 316.447 144.435 316.191 144.936C315.935 145.427 315.833 146.013 315.887 146.696C315.833 147.379 315.94 147.976 316.207 148.488C316.484 148.989 316.857 149.379 317.327 149.656C317.807 149.933 318.319 150.072 318.863 150.072C319.492 150.072 320.02 149.923 320.447 149.624C320.873 149.325 321.22 148.952 321.487 148.504L322.511 149.048C322.34 149.432 322.079 149.789 321.727 150.12C321.375 150.44 320.953 150.701 320.463 150.904C319.983 151.096 319.449 151.192 318.863 151.192Z" fill="white"/>
<mask id="path-6-inside-1_8_55" fill="white">
<path d="M305.049 47.2754L306.617 52.1027C307.104 53.5715 307.928 54.906 309.023 55.9993C310.118 57.0927 311.454 57.9146 312.923 58.3994L317.75 59.968L317.845 59.995C318.217 60.1261 318.54 60.3695 318.768 60.6916C318.996 61.0137 319.119 61.3987 319.119 61.7934C319.119 62.1881 318.996 62.5731 318.768 62.8952C318.54 63.2174 318.217 63.4608 317.845 63.5918L313.018 65.1604C311.548 65.6451 310.213 66.4671 309.118 67.5605C308.023 68.6538 307.199 69.9883 306.712 71.457L305.144 76.2798C305.013 76.6522 304.769 76.9746 304.447 77.2027C304.125 77.4308 303.74 77.5534 303.345 77.5534C302.95 77.5534 302.565 77.4308 302.243 77.2027C301.921 76.9746 301.678 76.6522 301.547 76.2798L299.974 71.457C299.491 69.985 298.669 68.6466 297.576 67.5492C296.482 66.4497 295.145 65.6222 293.673 65.1333L288.845 63.5648C288.473 63.4337 288.15 63.1903 287.922 62.8682C287.694 62.5461 287.572 62.1611 287.572 61.7664C287.572 61.3717 287.694 60.9867 287.922 60.6645C288.15 60.3424 288.473 60.099 288.845 59.968L293.673 58.3994C295.124 57.9015 296.439 57.0737 297.516 55.9811C298.593 54.8885 299.402 53.5609 299.879 52.1027L301.448 47.2799C301.578 46.9061 301.821 46.5819 302.144 46.3526C302.466 46.1232 302.852 46 303.248 46C303.644 46 304.03 46.1232 304.353 46.3526C304.676 46.5819 304.919 46.9016 305.049 47.2754ZM327.157 83.0273L323.705 81.9095C322.657 81.5592 321.705 80.97 320.924 80.1885C320.144 79.4071 319.556 78.4547 319.206 77.4067L318.079 73.9631C317.986 73.6969 317.812 73.4662 317.582 73.303C317.352 73.1398 317.077 73.0522 316.795 73.0522C316.513 73.0522 316.238 73.1398 316.008 73.303C315.777 73.4662 315.604 73.6969 315.51 73.9631L314.393 77.4067C314.05 78.4479 313.471 79.396 312.702 80.177C311.933 80.958 310.993 81.5509 309.957 81.9095L306.509 83.0273C306.245 83.1226 306.017 83.2971 305.855 83.527C305.694 83.7569 305.607 84.0309 305.607 84.3118C305.607 84.5927 305.694 84.8668 305.855 85.0966C306.017 85.3265 306.245 85.501 306.509 85.5964L309.957 86.7187C311.008 87.0691 311.963 87.6598 312.745 88.4438C313.528 89.2279 314.116 90.1836 314.465 91.235L315.582 94.6786C315.676 94.9448 315.85 95.1755 316.08 95.3387C316.31 95.5019 316.585 95.5895 316.867 95.5895C317.149 95.5895 317.424 95.5019 317.654 95.3387C317.885 95.1755 318.058 94.9448 318.152 94.6786L319.274 91.235C319.624 90.1866 320.212 89.2338 320.994 88.4523C321.776 87.6708 322.728 87.0819 323.777 86.7323L327.225 85.6144C327.489 85.5191 327.717 85.3446 327.879 85.1147C328.04 84.8848 328.127 84.6107 328.127 84.3299C328.127 84.049 328.04 83.7749 327.879 83.545C327.717 83.3152 327.489 83.1407 327.225 83.0453L327.157 83.0273ZM316.876 100.092C315.677 100.09 314.506 99.7293 313.514 99.0552C312.522 98.334 311.801 97.383 311.35 96.2561L310.178 92.6413C310.059 92.2608 309.842 91.9186 309.547 91.6497C309.267 91.3692 308.928 91.1538 308.556 91.0187L305.121 89.8919C303.904 89.4411 302.912 88.7155 302.191 87.7239C301.47 86.7322 301.11 85.5558 301.11 84.3344C301.11 83.478 301.29 82.6216 301.65 81.8554C300.929 81.6751 300.253 81.3596 299.622 80.9088C298.55 80.1227 297.733 79.0378 297.274 77.7898L295.651 72.8678C295.246 71.8312 294.84 71.2452 294.344 70.7494C293.739 70.1648 293.015 69.7175 292.221 69.4378L287.439 67.8602C286.66 67.601 285.939 67.1922 285.316 66.6568V123.764C287.079 125.328 289.224 126.4 291.534 126.87C293.843 127.341 296.236 127.194 298.471 126.444C300.706 125.694 302.703 124.368 304.262 122.6C305.82 120.832 306.885 118.683 307.348 116.372L307.514 115.529C311.041 114.781 314.167 112.76 316.296 109.851C318.425 106.942 319.407 103.35 319.053 99.7628C318.35 99.9907 317.615 100.102 316.876 100.092ZM280.809 57.1013C279.327 56.025 277.598 55.3387 275.782 55.1055C273.965 54.8722 272.119 55.0996 270.413 55.7666C268.708 56.4336 267.197 57.5189 266.021 58.9225C264.844 60.3262 264.04 62.0031 263.681 63.7992L263.118 66.6252L261.288 66.9903C258.531 67.5432 256.052 69.0332 254.269 71.2073C252.487 73.3814 251.513 76.1054 251.511 78.9166V79.8091C251.511 83.0813 252.909 86.0291 255.14 88.0889C252.415 89.4393 250.178 91.6049 248.74 94.2849C247.302 96.9648 246.734 100.026 247.116 103.043C247.497 106.061 248.809 108.884 250.869 111.122C252.929 113.36 255.635 114.9 258.61 115.529L258.777 116.363C259.24 118.675 260.304 120.823 261.862 122.592C263.42 124.361 265.417 125.688 267.652 126.438C269.887 127.188 272.28 127.336 274.59 126.865C276.9 126.395 279.045 125.324 280.809 123.76V57.1013Z"/>
</mask>
<path d="M305.049 47.2754L306.617 52.1027C307.104 53.5715 307.928 54.906 309.023 55.9993C310.118 57.0927 311.454 57.9146 312.923 58.3994L317.75 59.968L317.845 59.995C318.217 60.1261 318.54 60.3695 318.768 60.6916C318.996 61.0137 319.119 61.3987 319.119 61.7934C319.119 62.1881 318.996 62.5731 318.768 62.8952C318.54 63.2174 318.217 63.4608 317.845 63.5918L313.018 65.1604C311.548 65.6451 310.213 66.4671 309.118 67.5605C308.023 68.6538 307.199 69.9883 306.712 71.457L305.144 76.2798C305.013 76.6522 304.769 76.9746 304.447 77.2027C304.125 77.4308 303.74 77.5534 303.345 77.5534C302.95 77.5534 302.565 77.4308 302.243 77.2027C301.921 76.9746 301.678 76.6522 301.547 76.2798L299.974 71.457C299.491 69.985 298.669 68.6466 297.576 67.5492C296.482 66.4497 295.145 65.6222 293.673 65.1333L288.845 63.5648C288.473 63.4337 288.15 63.1903 287.922 62.8682C287.694 62.5461 287.572 62.1611 287.572 61.7664C287.572 61.3717 287.694 60.9867 287.922 60.6645C288.15 60.3424 288.473 60.099 288.845 59.968L293.673 58.3994C295.124 57.9015 296.439 57.0737 297.516 55.9811C298.593 54.8885 299.402 53.5609 299.879 52.1027L301.448 47.2799C301.578 46.9061 301.821 46.5819 302.144 46.3526C302.466 46.1232 302.852 46 303.248 46C303.644 46 304.03 46.1232 304.353 46.3526C304.676 46.5819 304.919 46.9016 305.049 47.2754ZM327.157 83.0273L323.705 81.9095C322.657 81.5592 321.705 80.97 320.924 80.1885C320.144 79.4071 319.556 78.4547 319.206 77.4067L318.079 73.9631C317.986 73.6969 317.812 73.4662 317.582 73.303C317.352 73.1398 317.077 73.0522 316.795 73.0522C316.513 73.0522 316.238 73.1398 316.008 73.303C315.777 73.4662 315.604 73.6969 315.51 73.9631L314.393 77.4067C314.05 78.4479 313.471 79.396 312.702 80.177C311.933 80.958 310.993 81.5509 309.957 81.9095L306.509 83.0273C306.245 83.1226 306.017 83.2971 305.855 83.527C305.694 83.7569 305.607 84.0309 305.607 84.3118C305.607 84.5927 305.694 84.8668 305.855 85.0966C306.017 85.3265 306.245 85.501 306.509 85.5964L309.957 86.7187C311.008 87.0691 311.963 87.6598 312.745 88.4438C313.528 89.2279 314.116 90.1836 314.465 91.235L315.582 94.6786C315.676 94.9448 315.85 95.1755 316.08 95.3387C316.31 95.5019 316.585 95.5895 316.867 95.5895C317.149 95.5895 317.424 95.5019 317.654 95.3387C317.885 95.1755 318.058 94.9448 318.152 94.6786L319.274 91.235C319.624 90.1866 320.212 89.2338 320.994 88.4523C321.776 87.6708 322.728 87.0819 323.777 86.7323L327.225 85.6144C327.489 85.5191 327.717 85.3446 327.879 85.1147C328.04 84.8848 328.127 84.6107 328.127 84.3299C328.127 84.049 328.04 83.7749 327.879 83.545C327.717 83.3152 327.489 83.1407 327.225 83.0453L327.157 83.0273ZM316.876 100.092C315.677 100.09 314.506 99.7293 313.514 99.0552C312.522 98.334 311.801 97.383 311.35 96.2561L310.178 92.6413C310.059 92.2608 309.842 91.9186 309.547 91.6497C309.267 91.3692 308.928 91.1538 308.556 91.0187L305.121 89.8919C303.904 89.4411 302.912 88.7155 302.191 87.7239C301.47 86.7322 301.11 85.5558 301.11 84.3344C301.11 83.478 301.29 82.6216 301.65 81.8554C300.929 81.6751 300.253 81.3596 299.622 80.9088C298.55 80.1227 297.733 79.0378 297.274 77.7898L295.651 72.8678C295.246 71.8312 294.84 71.2452 294.344 70.7494C293.739 70.1648 293.015 69.7175 292.221 69.4378L287.439 67.8602C286.66 67.601 285.939 67.1922 285.316 66.6568V123.764C287.079 125.328 289.224 126.4 291.534 126.87C293.843 127.341 296.236 127.194 298.471 126.444C300.706 125.694 302.703 124.368 304.262 122.6C305.82 120.832 306.885 118.683 307.348 116.372L307.514 115.529C311.041 114.781 314.167 112.76 316.296 109.851C318.425 106.942 319.407 103.35 319.053 99.7628C318.35 99.9907 317.615 100.102 316.876 100.092ZM280.809 57.1013C279.327 56.025 277.598 55.3387 275.782 55.1055C273.965 54.8722 272.119 55.0996 270.413 55.7666C268.708 56.4336 267.197 57.5189 266.021 58.9225C264.844 60.3262 264.04 62.0031 263.681 63.7992L263.118 66.6252L261.288 66.9903C258.531 67.5432 256.052 69.0332 254.269 71.2073C252.487 73.3814 251.513 76.1054 251.511 78.9166V79.8091C251.511 83.0813 252.909 86.0291 255.14 88.0889C252.415 89.4393 250.178 91.6049 248.74 94.2849C247.302 96.9648 246.734 100.026 247.116 103.043C247.497 106.061 248.809 108.884 250.869 111.122C252.929 113.36 255.635 114.9 258.61 115.529L258.777 116.363C259.24 118.675 260.304 120.823 261.862 122.592C263.42 124.361 265.417 125.688 267.652 126.438C269.887 127.188 272.28 127.336 274.59 126.865C276.9 126.395 279.045 125.324 280.809 123.76V57.1013Z" fill="#0E9D86" stroke="#E5DADA" stroke-width="2" mask="url(#path-6-inside-1_8_55)"/>
<path d="M43.0433 565.192C42.2006 565.192 41.4273 565.043 40.7233 564.744C40.0193 564.435 39.406 564.008 38.8833 563.464C38.3713 562.909 37.9713 562.259 37.6833 561.512C37.3953 560.765 37.2513 559.944 37.2513 559.048C37.2513 558.152 37.3953 557.331 37.6833 556.584C37.9713 555.837 38.3713 555.187 38.8833 554.632C39.406 554.077 40.0193 553.651 40.7233 553.352C41.4273 553.043 42.2006 552.888 43.0433 552.888C43.854 552.888 44.5793 553.032 45.2193 553.32C45.87 553.608 46.414 553.981 46.8513 554.44C47.2993 554.888 47.6193 555.363 47.8113 555.864L46.6113 556.392C46.3126 555.699 45.854 555.144 45.2353 554.728C44.6273 554.301 43.8966 554.088 43.0433 554.088C42.1686 554.088 41.39 554.296 40.7073 554.712C40.0246 555.128 39.4913 555.709 39.1073 556.456C38.7233 557.192 38.5313 558.056 38.5313 559.048C38.5313 560.029 38.7233 560.893 39.1073 561.64C39.4913 562.387 40.0246 562.968 40.7073 563.384C41.39 563.789 42.1686 563.992 43.0433 563.992C43.8966 563.992 44.6273 563.784 45.2353 563.368C45.854 562.952 46.3126 562.397 46.6113 561.704L47.8113 562.232C47.6193 562.723 47.2993 563.197 46.8513 563.656C46.414 564.104 45.87 564.472 45.2193 564.76C44.5793 565.048 43.854 565.192 43.0433 565.192ZM49.9273 565V552.888H51.1273V565H49.9273ZM56.6236 565.192C56.0262 565.192 55.4822 565.053 54.9916 564.776C54.5009 564.488 54.1116 564.093 53.8236 563.592C53.5462 563.08 53.4076 562.493 53.4076 561.832V556.424H54.6076V561.688C54.6076 562.147 54.6982 562.552 54.8796 562.904C55.0716 563.245 55.3329 563.512 55.6636 563.704C56.0049 563.896 56.3942 563.992 56.8316 563.992C57.2689 563.992 57.6582 563.896 57.9996 563.704C58.3409 563.501 58.6076 563.219 58.7996 562.856C58.9916 562.483 59.0876 562.04 59.0876 561.528V556.424H60.2876V565H59.0876V563.336L59.3596 563.4C59.1569 563.955 58.8102 564.392 58.3196 564.712C57.8289 565.032 57.2636 565.192 56.6236 565.192ZM65.7314 565.192C64.9101 565.192 64.1901 564.984 63.5714 564.568C62.9528 564.152 62.5048 563.587 62.2274 562.872L63.2354 562.392C63.4808 562.915 63.8221 563.331 64.2594 563.64C64.7074 563.949 65.1981 564.104 65.7314 564.104C66.2434 564.104 66.6754 563.981 67.0274 563.736C67.3794 563.48 67.5554 563.149 67.5554 562.744C67.5554 562.445 67.4701 562.211 67.2994 562.04C67.1288 561.859 66.9314 561.72 66.7074 561.624C66.4834 561.528 66.2861 561.459 66.1154 561.416L64.8834 561.064C64.0941 560.84 63.5234 560.525 63.1714 560.12C62.8194 559.715 62.6434 559.245 62.6434 558.712C62.6434 558.211 62.7714 557.773 63.0274 557.4C63.2834 557.027 63.6301 556.739 64.0674 556.536C64.5048 556.333 64.9901 556.232 65.5234 556.232C66.2488 556.232 66.9048 556.424 67.4914 556.808C68.0888 557.181 68.5101 557.704 68.7554 558.376L67.7314 558.856C67.5181 558.376 67.2088 558.003 66.8034 557.736C66.4088 557.459 65.9661 557.32 65.4754 557.32C64.9954 557.32 64.6114 557.443 64.3234 557.688C64.0354 557.933 63.8914 558.243 63.8914 558.616C63.8914 558.904 63.9661 559.133 64.1154 559.304C64.2648 559.475 64.4354 559.603 64.6274 559.688C64.8301 559.773 65.0061 559.837 65.1554 559.88L66.5794 560.296C67.2728 560.499 67.8114 560.813 68.1954 561.24C68.5901 561.667 68.7874 562.168 68.7874 562.744C68.7874 563.213 68.6541 563.635 68.3874 564.008C68.1314 564.381 67.7741 564.675 67.3154 564.888C66.8568 565.091 66.3288 565.192 65.7314 565.192ZM74.1761 565.096C73.4081 565.096 72.8161 564.872 72.4001 564.424C71.9841 563.976 71.7761 563.336 71.7761 562.504V557.624H70.1921V556.424H70.5921C70.9547 556.424 71.2427 556.307 71.4561 556.072C71.6694 555.827 71.7761 555.523 71.7761 555.16V554.44H72.9761V556.424H74.8641V557.624H72.9761V562.504C72.9761 562.792 73.0187 563.048 73.1041 563.272C73.1894 563.485 73.3334 563.656 73.5361 563.784C73.7494 563.912 74.0321 563.976 74.3841 563.976C74.4694 563.976 74.5707 563.971 74.6881 563.96C74.8054 563.949 74.9067 563.939 74.9921 563.928V565C74.8641 565.032 74.7201 565.053 74.5601 565.064C74.4001 565.085 74.2721 565.096 74.1761 565.096ZM80.6907 565.192C79.8907 565.192 79.1654 565 78.5147 564.616C77.8747 564.221 77.368 563.683 76.9947 563C76.6214 562.317 76.4347 561.544 76.4347 560.68C76.4347 559.816 76.616 559.053 76.9787 558.392C77.3414 557.72 77.832 557.192 78.4507 556.808C79.08 556.424 79.784 556.232 80.5627 556.232C81.1814 556.232 81.7307 556.349 82.2107 556.584C82.7014 556.808 83.1174 557.117 83.4587 557.512C83.8 557.896 84.0614 558.333 84.2427 558.824C84.424 559.304 84.5147 559.8 84.5147 560.312C84.5147 560.419 84.5094 560.541 84.4987 560.68C84.488 560.808 84.472 560.941 84.4507 561.08H77.2027V559.96H83.7627L83.1867 560.44C83.2827 559.853 83.2134 559.331 82.9787 558.872C82.7547 558.403 82.4294 558.035 82.0027 557.768C81.576 557.491 81.096 557.352 80.5627 557.352C80.0294 557.352 79.5334 557.491 79.0747 557.768C78.6267 558.045 78.2747 558.435 78.0187 558.936C77.7627 559.427 77.6614 560.013 77.7147 560.696C77.6614 561.379 77.768 561.976 78.0347 562.488C78.312 562.989 78.6854 563.379 79.1547 563.656C79.6347 563.933 80.1467 564.072 80.6907 564.072C81.32 564.072 81.848 563.923 82.2747 563.624C82.7014 563.325 83.048 562.952 83.3147 562.504L84.3387 563.048C84.168 563.432 83.9067 563.789 83.5547 564.12C83.2027 564.44 82.7814 564.701 82.2907 564.904C81.8107 565.096 81.2774 565.192 80.6907 565.192ZM86.6304 565V556.424H87.8304V557.832L87.6704 557.624C87.8731 557.219 88.1771 556.899 88.5824 556.664C88.9984 556.429 89.4998 556.312 90.0864 556.312H90.6304V557.512H89.8784C89.2598 557.512 88.7638 557.704 88.3904 558.088C88.0171 558.472 87.8304 559.016 87.8304 559.72V565H86.6304Z" fill="white"/>
<path d="M73.7119 462.5H73.7129C76.7694 462.5 79.7236 463.604 82.0312 465.608C84.3387 467.613 85.8445 470.383 86.2725 473.409L86.3252 473.776L86.6914 473.833C89.4981 474.27 92.1265 475.485 94.2793 477.338C96.4323 479.191 98.024 481.611 98.874 484.321C99.724 487.032 99.799 489.927 99.0898 492.678C98.3807 495.428 96.9158 497.926 94.8613 499.888L94.3486 500.377L94.9814 500.696C97.5838 502.006 99.772 504.012 101.301 506.492C102.829 508.972 103.639 511.828 103.64 514.741V515.755C103.64 519.495 102.308 523.114 99.8818 525.96C97.4556 528.806 94.0943 530.695 90.4014 531.287L90.0811 531.338L89.9971 531.651C88.305 537.984 82.534 542.64 75.7656 542.64H75.7646C72.6521 542.642 69.624 541.652 67.1123 539.82V521.326H73.7129C76.2662 521.326 78.715 520.312 80.5205 518.507C82.3262 516.701 83.3408 514.252 83.3408 511.698V508.384C85.0525 507.611 86.4678 506.299 87.3662 504.643C88.3188 502.886 88.6318 500.853 88.25 498.892C87.8681 496.931 86.8153 495.163 85.2734 493.893C83.7316 492.622 81.7957 491.928 79.7979 491.928H79.7969C77.8018 491.933 75.8701 492.63 74.332 493.9C72.7939 495.171 71.7446 496.937 71.3633 498.896C70.9821 500.854 71.2923 502.884 72.2412 504.639C73.1362 506.294 74.5474 507.607 76.2549 508.383V511.698C76.2549 512.373 75.9875 513.019 75.5107 513.496C75.034 513.973 74.3871 514.241 73.7129 514.241H67.1123V464.355C69.0972 463.14 71.3811 462.496 73.7119 462.5ZM47.3418 515.241C47.7471 515.241 48.1362 515.402 48.4229 515.688C48.7095 515.975 48.8701 516.364 48.8701 516.77C48.8701 517.175 48.7095 517.564 48.4229 517.851C48.1362 518.137 47.7471 518.298 47.3418 518.298C46.9365 518.298 46.5473 518.137 46.2607 517.851C45.9742 517.564 45.8135 517.175 45.8135 516.77C45.8135 516.364 45.9742 515.975 46.2607 515.688C46.5473 515.402 46.9365 515.241 47.3418 515.241ZM79.7979 499.013C80.2032 499.013 80.5923 499.174 80.8789 499.461C81.1654 499.748 81.3262 500.137 81.3262 500.542C81.326 500.947 81.1653 501.336 80.8789 501.622C80.5923 501.909 80.2032 502.07 79.7979 502.07C79.3925 502.07 79.0034 501.909 78.7168 501.622C78.4305 501.336 78.2697 500.947 78.2695 500.542C78.2695 500.137 78.4303 499.748 78.7168 499.461C79.0034 499.174 79.3925 499.013 79.7979 499.013ZM47.3418 484.813C47.7471 484.813 48.1362 484.974 48.4229 485.261C48.7094 485.547 48.8701 485.936 48.8701 486.342C48.8701 486.747 48.7095 487.136 48.4229 487.423C48.1362 487.71 47.7472 487.87 47.3418 487.87C46.9365 487.87 46.5473 487.709 46.2607 487.423C45.9742 487.136 45.8135 486.747 45.8135 486.342C45.8135 485.936 45.9741 485.547 46.2607 485.261C46.5473 484.974 46.9365 484.814 47.3418 484.813ZM50.8848 507.628L50.8838 507.615L50.835 506.682V506.67L50.833 506.657L50.7773 506.215C50.4478 504.015 49.3653 501.991 47.707 500.494C45.9381 498.898 43.6397 498.013 41.2568 498.013H30.6094C29.0699 495.96 28.0715 493.553 27.7119 491.01C27.341 488.387 27.6606 485.712 28.6396 483.251C29.6186 480.79 31.2229 478.626 33.2939 476.975C35.365 475.323 37.8316 474.24 40.4492 473.833L40.8154 473.776L40.8672 473.409C41.2951 470.383 42.8017 467.613 45.1094 465.608C47.4171 463.604 50.3711 462.5 53.4277 462.5C55.8488 462.5 58.1054 463.179 60.0273 464.355V482.799H55.1924C54.4194 481.086 53.1063 479.67 51.4492 478.771C49.6922 477.817 47.6584 477.505 45.6963 477.887C43.7341 478.269 41.9657 479.321 40.6943 480.863C39.423 482.406 38.7276 484.343 38.7275 486.342C38.7275 488.341 39.423 490.278 40.6943 491.82C41.9657 493.363 43.7341 494.416 45.6963 494.798C47.6584 495.18 49.6922 494.866 51.4492 493.913C53.1065 493.014 54.4205 491.598 55.1934 489.885H60.0273V539.82C57.5156 541.651 54.4876 542.642 51.375 542.64C44.6068 542.64 38.8388 537.984 37.1426 531.651L37.0586 531.338L36.7393 531.287L36.3936 531.228C32.8368 530.576 29.6092 528.717 27.2588 525.96C24.8325 523.114 23.4996 519.495 23.5 515.755V514.741C23.5 511.103 24.7406 507.763 26.8154 505.099H41.2568C41.8859 505.099 42.4929 505.332 42.96 505.753C43.4229 506.171 43.7151 506.744 43.7832 507.363L43.7988 507.642V508.918C42.0859 509.691 40.6696 511.005 39.7705 512.662C38.8173 514.419 38.5049 516.453 38.8867 518.415C39.2686 520.377 40.3207 522.146 41.8633 523.417C43.4059 524.688 45.3428 525.384 47.3418 525.384C49.3408 525.384 51.2777 524.688 52.8203 523.417C54.363 522.146 55.416 520.377 55.7979 518.415C56.1796 516.453 55.8663 514.419 54.9131 512.662C54.0139 511.005 52.5978 509.691 50.8848 508.918V507.628Z" fill="#0E9D86" stroke="#E5DADA"/>
<path d="M234.926 359.192C234.083 359.192 233.31 359.043 232.606 358.744C231.902 358.435 231.289 358.008 230.766 357.464C230.254 356.909 229.854 356.259 229.566 355.512C229.278 354.765 229.134 353.944 229.134 353.048C229.134 352.152 229.278 351.331 229.566 350.584C229.854 349.837 230.254 349.187 230.766 348.632C231.289 348.077 231.902 347.651 232.606 347.352C233.31 347.043 234.083 346.888 234.926 346.888C235.737 346.888 236.462 347.032 237.102 347.32C237.753 347.608 238.297 347.981 238.734 348.44C239.182 348.888 239.502 349.363 239.694 349.864L238.494 350.392C238.195 349.699 237.737 349.144 237.118 348.728C236.51 348.301 235.779 348.088 234.926 348.088C234.051 348.088 233.273 348.296 232.59 348.712C231.907 349.128 231.374 349.709 230.99 350.456C230.606 351.192 230.414 352.056 230.414 353.048C230.414 354.029 230.606 354.893 230.99 355.64C231.374 356.387 231.907 356.968 232.59 357.384C233.273 357.789 234.051 357.992 234.926 357.992C235.779 357.992 236.51 357.784 237.118 357.368C237.737 356.952 238.195 356.397 238.494 355.704L239.694 356.232C239.502 356.723 239.182 357.197 238.734 357.656C238.297 358.104 237.753 358.472 237.102 358.76C236.462 359.048 235.737 359.192 234.926 359.192ZM241.81 359V346.888H243.01V359H241.81ZM245.466 359V350.424H246.666V359H245.466ZM245.466 348.84V347.08H246.666V348.84H245.466ZM253.027 359.192C252.227 359.192 251.501 359 250.851 358.616C250.211 358.221 249.704 357.683 249.331 357C248.957 356.317 248.771 355.544 248.771 354.68C248.771 353.816 248.952 353.053 249.315 352.392C249.677 351.72 250.168 351.192 250.787 350.808C251.416 350.424 252.12 350.232 252.899 350.232C253.517 350.232 254.067 350.349 254.547 350.584C255.037 350.808 255.453 351.117 255.795 351.512C256.136 351.896 256.397 352.333 256.579 352.824C256.76 353.304 256.851 353.8 256.851 354.312C256.851 354.419 256.845 354.541 256.835 354.68C256.824 354.808 256.808 354.941 256.787 355.08H249.539V353.96H256.099L255.523 354.44C255.619 353.853 255.549 353.331 255.315 352.872C255.091 352.403 254.765 352.035 254.339 351.768C253.912 351.491 253.432 351.352 252.899 351.352C252.365 351.352 251.869 351.491 251.411 351.768C250.963 352.045 250.611 352.435 250.355 352.936C250.099 353.427 249.997 354.013 250.051 354.696C249.997 355.379 250.104 355.976 250.371 356.488C250.648 356.989 251.021 357.379 251.491 357.656C251.971 357.933 252.483 358.072 253.027 358.072C253.656 358.072 254.184 357.923 254.611 357.624C255.037 357.325 255.384 356.952 255.651 356.504L256.675 357.048C256.504 357.432 256.243 357.789 255.891 358.12C255.539 358.44 255.117 358.701 254.627 358.904C254.147 359.096 253.613 359.192 253.027 359.192ZM258.966 359V350.424H260.166V352.088L259.894 352.024C260.108 351.469 260.454 351.032 260.934 350.712C261.425 350.392 261.99 350.232 262.63 350.232C263.238 350.232 263.782 350.371 264.262 350.648C264.753 350.925 265.137 351.309 265.414 351.8C265.702 352.28 265.846 352.824 265.846 353.432V359H264.646V353.896C264.646 353.373 264.55 352.931 264.358 352.568C264.177 352.205 263.916 351.928 263.574 351.736C263.244 351.533 262.86 351.432 262.422 351.432C261.985 351.432 261.596 351.533 261.254 351.736C260.913 351.928 260.646 352.211 260.454 352.584C260.262 352.947 260.166 353.384 260.166 353.896V359H258.966ZM271.418 359.096C270.65 359.096 270.058 358.872 269.642 358.424C269.226 357.976 269.018 357.336 269.018 356.504V351.624H267.434V350.424H267.834C268.197 350.424 268.485 350.307 268.698 350.072C268.912 349.827 269.018 349.523 269.018 349.16V348.44H270.218V350.424H272.106V351.624H270.218V356.504C270.218 356.792 270.261 357.048 270.346 357.272C270.432 357.485 270.576 357.656 270.778 357.784C270.992 357.912 271.274 357.976 271.626 357.976C271.712 357.976 271.813 357.971 271.93 357.96C272.048 357.949 272.149 357.939 272.234 357.928V359C272.106 359.032 271.962 359.053 271.802 359.064C271.642 359.085 271.514 359.096 271.418 359.096ZM279.188 361.24C278.345 360.28 277.7 359.197 277.252 357.992C276.815 356.787 276.596 355.507 276.596 354.152C276.596 352.787 276.815 351.507 277.252 350.312C277.7 349.107 278.345 348.029 279.188 347.08H280.228C279.46 348.147 278.873 349.283 278.468 350.488C278.073 351.693 277.876 352.915 277.876 354.152C277.876 355.389 278.073 356.611 278.468 357.816C278.873 359.021 279.46 360.163 280.228 361.24H279.188ZM284.019 359V348.28H280.723V347.08H288.563V348.28H285.299V359H284.019ZM289.966 359V346.888H291.166V352.088L290.894 352.024C291.108 351.469 291.454 351.032 291.934 350.712C292.425 350.392 292.99 350.232 293.63 350.232C294.238 350.232 294.782 350.371 295.262 350.648C295.753 350.925 296.137 351.309 296.414 351.8C296.702 352.28 296.846 352.824 296.846 353.432V359H295.646V353.896C295.646 353.373 295.55 352.931 295.358 352.568C295.166 352.205 294.9 351.928 294.558 351.736C294.228 351.533 293.849 351.432 293.422 351.432C292.996 351.432 292.612 351.533 292.27 351.736C291.929 351.928 291.657 352.211 291.454 352.584C291.262 352.947 291.166 353.384 291.166 353.896V359H289.966ZM299.138 359V350.424H300.338V359H299.138ZM299.138 348.84V347.08H300.338V348.84H299.138ZM305.771 359.192C304.949 359.192 304.229 358.984 303.611 358.568C302.992 358.152 302.544 357.587 302.267 356.872L303.275 356.392C303.52 356.915 303.861 357.331 304.299 357.64C304.747 357.949 305.237 358.104 305.771 358.104C306.283 358.104 306.715 357.981 307.067 357.736C307.419 357.48 307.595 357.149 307.595 356.744C307.595 356.445 307.509 356.211 307.339 356.04C307.168 355.859 306.971 355.72 306.747 355.624C306.523 355.528 306.325 355.459 306.155 355.416L304.923 355.064C304.133 354.84 303.563 354.525 303.211 354.12C302.859 353.715 302.683 353.245 302.683 352.712C302.683 352.211 302.811 351.773 303.067 351.4C303.323 351.027 303.669 350.739 304.107 350.536C304.544 350.333 305.029 350.232 305.562 350.232C306.288 350.232 306.944 350.424 307.531 350.808C308.128 351.181 308.549 351.704 308.795 352.376L307.771 352.856C307.557 352.376 307.248 352.003 306.843 351.736C306.448 351.459 306.005 351.32 305.515 351.32C305.035 351.32 304.651 351.443 304.363 351.688C304.075 351.933 303.931 352.243 303.931 352.616C303.931 352.904 304.005 353.133 304.155 353.304C304.304 353.475 304.475 353.603 304.667 353.688C304.869 353.773 305.045 353.837 305.195 353.88L306.619 354.296C307.312 354.499 307.851 354.813 308.235 355.24C308.629 355.667 308.827 356.168 308.827 356.744C308.827 357.213 308.693 357.635 308.427 358.008C308.171 358.381 307.813 358.675 307.355 358.888C306.896 359.091 306.368 359.192 305.771 359.192ZM312.598 359L316.95 347.08H318.326L322.678 359H321.334L320.31 356.088H314.982L313.942 359H312.598ZM315.398 354.888H319.862L317.446 348.04H317.83L315.398 354.888ZM324.091 362.2V350.424H325.291V352.344L325.099 352.008C325.441 351.464 325.894 351.032 326.459 350.712C327.035 350.392 327.691 350.232 328.427 350.232C329.238 350.232 329.958 350.429 330.587 350.824C331.227 351.208 331.729 351.736 332.091 352.408C332.465 353.08 332.651 353.848 332.651 354.712C332.651 355.565 332.465 356.333 332.091 357.016C331.729 357.688 331.227 358.221 330.587 358.616C329.958 359 329.238 359.192 328.427 359.192C327.691 359.192 327.025 359.027 326.427 358.696C325.841 358.355 325.398 357.875 325.099 357.256L325.291 357.08V362.2H324.091ZM328.363 357.992C328.939 357.992 329.451 357.848 329.899 357.56C330.358 357.272 330.715 356.883 330.971 356.392C331.238 355.891 331.371 355.331 331.371 354.712C331.371 354.083 331.238 353.523 330.971 353.032C330.715 352.541 330.358 352.152 329.899 351.864C329.451 351.576 328.939 351.432 328.363 351.432C327.787 351.432 327.265 351.576 326.795 351.864C326.337 352.152 325.969 352.547 325.691 353.048C325.425 353.539 325.291 354.093 325.291 354.712C325.291 355.331 325.425 355.891 325.691 356.392C325.969 356.883 326.337 357.272 326.795 357.56C327.265 357.848 327.787 357.992 328.363 357.992ZM334.763 362.2V350.424H335.963V352.344L335.771 352.008C336.113 351.464 336.566 351.032 337.131 350.712C337.707 350.392 338.363 350.232 339.099 350.232C339.91 350.232 340.63 350.429 341.259 350.824C341.899 351.208 342.401 351.736 342.763 352.408C343.137 353.08 343.323 353.848 343.323 354.712C343.323 355.565 343.137 356.333 342.763 357.016C342.401 357.688 341.899 358.221 341.259 358.616C340.63 359 339.91 359.192 339.099 359.192C338.363 359.192 337.697 359.027 337.099 358.696C336.513 358.355 336.07 357.875 335.771 357.256L335.963 357.08V362.2H334.763ZM339.035 357.992C339.611 357.992 340.123 357.848 340.571 357.56C341.03 357.272 341.387 356.883 341.643 356.392C341.91 355.891 342.043 355.331 342.043 354.712C342.043 354.083 341.91 353.523 341.643 353.032C341.387 352.541 341.03 352.152 340.571 351.864C340.123 351.576 339.611 351.432 339.035 351.432C338.459 351.432 337.937 351.576 337.467 351.864C337.009 352.152 336.641 352.547 336.363 353.048C336.097 353.539 335.963 354.093 335.963 354.712C335.963 355.331 336.097 355.891 336.363 356.392C336.641 356.883 337.009 357.272 337.467 357.56C337.937 357.848 338.459 357.992 339.035 357.992ZM344.523 361.24C345.291 360.163 345.872 359.021 346.267 357.816C346.672 356.611 346.875 355.389 346.875 354.152C346.875 352.915 346.672 351.693 346.267 350.488C345.872 349.283 345.291 348.147 344.523 347.08H345.563C346.416 348.029 347.062 349.107 347.499 350.312C347.936 351.507 348.155 352.787 348.155 354.152C348.155 355.507 347.936 356.787 347.499 357.992C347.062 359.197 346.416 360.28 345.563 361.24H344.523Z" fill="white"/>
<path d="M254.761 254.5H321.416C325.98 254.5 329.677 258.197 329.677 262.761V308.372C329.677 312.936 325.98 316.632 321.416 316.632H296.499L296.738 317.301L299.955 326.29L300.074 326.621H306.126C307.189 326.621 308.209 327.044 308.961 327.796C309.713 328.548 310.136 329.568 310.136 330.631C310.136 331.694 309.713 332.714 308.961 333.466C308.209 334.218 307.189 334.64 306.126 334.64H270.051C268.987 334.64 267.967 334.218 267.215 333.466C266.463 332.714 266.041 331.694 266.041 330.631C266.041 329.568 266.463 328.548 267.215 327.796C267.967 327.044 268.987 326.621 270.051 326.621H276.103L276.221 326.29L279.438 317.301L279.677 316.632H254.761C252.57 316.632 250.468 315.762 248.919 314.213C247.37 312.664 246.5 310.563 246.5 308.372V262.761C246.5 258.197 250.197 254.5 254.761 254.5ZM300.123 271.584C298.81 271.596 297.553 272.124 296.625 273.053C295.697 273.982 295.17 275.239 295.159 276.553C295.148 277.866 295.655 279.131 296.567 280.075L302.052 285.56L296.573 291.039L296.561 291.052C295.676 292.001 295.194 293.257 295.217 294.555C295.24 295.852 295.766 297.091 296.684 298.009C297.601 298.927 298.84 299.453 300.138 299.476C301.435 299.498 302.691 299.016 303.641 298.132L303.653 298.119L312.673 289.101C313.611 288.161 314.138 286.888 314.138 285.561C314.138 284.233 313.611 282.96 312.673 282.021V282.02L303.653 272.995L303.647 272.988L303.467 272.822C302.544 272.015 301.354 271.573 300.123 271.584ZM276.062 271.529C274.735 271.529 273.463 272.057 272.523 272.995H272.522L263.504 282.014C262.566 282.953 262.039 284.226 262.039 285.554C262.039 286.881 262.566 288.154 263.504 289.094V289.095L272.522 298.113L272.529 298.119L272.535 298.125C273.485 299.01 274.741 299.492 276.039 299.469C277.337 299.446 278.575 298.921 279.493 298.003C280.411 297.085 280.936 295.847 280.959 294.549C280.982 293.251 280.5 291.995 279.615 291.046L279.609 291.039L274.124 285.554L279.604 280.075C280.069 279.61 280.438 279.058 280.689 278.45C280.941 277.842 281.071 277.19 281.071 276.532C281.071 275.874 280.941 275.222 280.689 274.614C280.438 274.007 280.069 273.454 279.604 272.989L279.603 272.988C278.662 272.049 277.388 271.529 276.062 271.529Z" fill="#E59500" stroke="#E5DADA"/>
<path d="M495.838 361.192C495.081 361.192 494.393 361.048 493.774 360.76C493.155 360.472 492.633 360.088 492.206 359.608C491.779 359.117 491.475 358.579 491.294 357.992L492.446 357.56C492.723 358.371 493.155 358.989 493.742 359.416C494.329 359.832 495.027 360.04 495.838 360.04C496.35 360.04 496.798 359.96 497.182 359.8C497.577 359.629 497.881 359.395 498.094 359.096C498.307 358.797 498.414 358.451 498.414 358.056C498.414 357.469 498.254 357.016 497.934 356.696C497.614 356.376 497.155 356.131 496.558 355.96L494.414 355.32C493.571 355.075 492.921 354.664 492.462 354.088C492.014 353.512 491.79 352.856 491.79 352.12C491.79 351.491 491.945 350.936 492.254 350.456C492.563 349.965 492.985 349.581 493.518 349.304C494.062 349.027 494.675 348.888 495.358 348.888C496.073 348.888 496.713 349.021 497.278 349.288C497.854 349.544 498.339 349.885 498.734 350.312C499.129 350.739 499.411 351.213 499.582 351.736L498.462 352.184C498.206 351.48 497.806 350.947 497.262 350.584C496.729 350.221 496.099 350.04 495.374 350.04C494.915 350.04 494.51 350.12 494.158 350.28C493.817 350.44 493.55 350.669 493.358 350.968C493.166 351.267 493.07 351.619 493.07 352.024C493.07 352.515 493.225 352.957 493.534 353.352C493.843 353.736 494.318 354.024 494.958 354.216L496.846 354.776C497.785 355.053 498.494 355.453 498.974 355.976C499.454 356.499 499.694 357.155 499.694 357.944C499.694 358.584 499.529 359.149 499.198 359.64C498.878 360.12 498.425 360.499 497.838 360.776C497.262 361.053 496.595 361.192 495.838 361.192ZM505.91 361.192C505.067 361.192 504.326 360.995 503.686 360.6C503.046 360.205 502.544 359.672 502.182 359C501.819 358.317 501.638 357.549 501.638 356.696C501.638 355.843 501.819 355.08 502.182 354.408C502.544 353.736 503.046 353.208 503.686 352.824C504.326 352.429 505.067 352.232 505.91 352.232C506.443 352.232 506.944 352.328 507.414 352.52C507.883 352.712 508.299 352.973 508.662 353.304C509.024 353.624 509.296 353.997 509.478 354.424L508.39 354.984C508.176 354.525 507.851 354.152 507.414 353.864C506.976 353.576 506.475 353.432 505.91 353.432C505.344 353.432 504.832 353.576 504.374 353.864C503.926 354.141 503.568 354.531 503.302 355.032C503.046 355.523 502.918 356.083 502.918 356.712C502.918 357.331 503.046 357.891 503.302 358.392C503.568 358.883 503.926 359.272 504.374 359.56C504.832 359.848 505.344 359.992 505.91 359.992C506.475 359.992 506.971 359.848 507.398 359.56C507.835 359.272 508.166 358.888 508.39 358.408L509.478 359C509.296 359.416 509.024 359.789 508.662 360.12C508.299 360.451 507.883 360.712 507.414 360.904C506.944 361.096 506.443 361.192 505.91 361.192ZM511.584 361V352.424H512.784V353.832L512.624 353.624C512.826 353.219 513.13 352.899 513.536 352.664C513.952 352.429 514.453 352.312 515.04 352.312H515.584V353.512H514.832C514.213 353.512 513.717 353.704 513.344 354.088C512.97 354.472 512.784 355.016 512.784 355.72V361H511.584ZM519.47 361.192C518.926 361.192 518.44 361.091 518.014 360.888C517.587 360.675 517.251 360.387 517.006 360.024C516.76 359.661 516.638 359.245 516.638 358.776C516.638 358.328 516.734 357.923 516.926 357.56C517.118 357.187 517.416 356.872 517.822 356.616C518.227 356.36 518.744 356.179 519.374 356.072L522.734 355.512V356.6L519.662 357.112C519.043 357.219 518.595 357.416 518.318 357.704C518.051 357.992 517.918 358.333 517.918 358.728C517.918 359.112 518.067 359.437 518.366 359.704C518.675 359.971 519.07 360.104 519.55 360.104C520.136 360.104 520.648 359.981 521.086 359.736C521.523 359.48 521.864 359.139 522.11 358.712C522.355 358.285 522.478 357.811 522.478 357.288V355.112C522.478 354.6 522.291 354.184 521.918 353.864C521.544 353.544 521.059 353.384 520.462 353.384C519.939 353.384 519.48 353.517 519.086 353.784C518.691 354.04 518.398 354.376 518.206 354.792L517.118 354.2C517.278 353.837 517.528 353.507 517.87 353.208C518.222 352.909 518.622 352.675 519.07 352.504C519.518 352.323 519.982 352.232 520.462 352.232C521.091 352.232 521.646 352.355 522.126 352.6C522.616 352.845 522.995 353.187 523.262 353.624C523.539 354.051 523.678 354.547 523.678 355.112V361H522.478V359.288L522.654 359.464C522.504 359.784 522.27 360.077 521.95 360.344C521.64 360.6 521.272 360.808 520.846 360.968C520.43 361.117 519.971 361.192 519.47 361.192ZM526.146 364.2V352.424H527.346V354.344L527.154 354.008C527.495 353.464 527.949 353.032 528.514 352.712C529.09 352.392 529.746 352.232 530.482 352.232C531.293 352.232 532.013 352.429 532.642 352.824C533.282 353.208 533.783 353.736 534.146 354.408C534.519 355.08 534.706 355.848 534.706 356.712C534.706 357.565 534.519 358.333 534.146 359.016C533.783 359.688 533.282 360.221 532.642 360.616C532.013 361 531.293 361.192 530.482 361.192C529.746 361.192 529.079 361.027 528.482 360.696C527.895 360.355 527.453 359.875 527.154 359.256L527.346 359.08V364.2H526.146ZM530.418 359.992C530.994 359.992 531.506 359.848 531.954 359.56C532.413 359.272 532.77 358.883 533.026 358.392C533.293 357.891 533.426 357.331 533.426 356.712C533.426 356.083 533.293 355.523 533.026 355.032C532.77 354.541 532.413 354.152 531.954 353.864C531.506 353.576 530.994 353.432 530.418 353.432C529.842 353.432 529.319 353.576 528.85 353.864C528.391 354.152 528.023 354.547 527.746 355.048C527.479 355.539 527.346 356.093 527.346 356.712C527.346 357.331 527.479 357.891 527.746 358.392C528.023 358.883 528.391 359.272 528.85 359.56C529.319 359.848 529.842 359.992 530.418 359.992Z" fill="white"/>
<path d="M520.689 299.626L486.693 333.618C485.894 334.418 484.945 335.052 483.901 335.484C482.857 335.917 481.738 336.14 480.608 336.14C478.325 336.14 476.136 335.234 474.522 333.62C472.907 332.007 472 329.818 472 327.535C472 325.253 472.906 323.063 474.52 321.449L508.52 287.453M528.692 263.228C522.688 259.412 515.973 256.85 508.953 255.697C501.932 254.544 494.751 254.824 487.841 256.519C482.17 257.906 483.411 265.273 488.964 267.07C497.461 269.824 505.441 273.969 512.581 279.336M528.806 295.566C534.174 302.707 538.319 310.69 541.072 319.19C542.873 324.743 550.24 325.988 551.631 320.317C553.32 313.439 553.605 306.29 552.471 299.299C551.336 292.307 548.805 285.616 545.027 279.624" fill="#E59500"/>
<path d="M520.689 299.626L486.693 333.618C485.894 334.418 484.945 335.052 483.901 335.484C482.857 335.917 481.738 336.14 480.608 336.14C478.325 336.14 476.136 335.234 474.522 333.62C472.907 332.007 472 329.818 472 327.535C472 325.253 472.906 323.063 474.52 321.449L508.52 287.453M528.692 263.228C522.688 259.412 515.973 256.85 508.953 255.697C501.932 254.544 494.751 254.824 487.841 256.519C482.17 257.906 483.411 265.273 488.964 267.07C497.461 269.824 505.441 273.969 512.581 279.336M528.806 295.566C534.174 302.707 538.319 310.69 541.072 319.19C542.873 324.743 550.24 325.988 551.631 320.317C553.32 313.439 553.605 306.29 552.471 299.299C551.336 292.307 548.805 285.616 545.027 279.624" stroke="#E5DADA" stroke-linecap="round" stroke-linejoin="round"/>
<path d="M538.342 260.49C537.426 259.574 536.183 259.059 534.886 259.059C533.59 259.059 532.347 259.574 531.43 260.49L509.948 281.973C509.031 282.889 508.517 284.132 508.517 285.429C508.517 286.725 509.031 287.968 509.948 288.885L519.261 298.198C520.178 299.115 521.421 299.63 522.717 299.63C524.014 299.63 525.257 299.115 526.173 298.198L547.656 276.716C548.572 275.799 549.087 274.556 549.087 273.26C549.087 271.963 548.572 270.72 547.656 269.804L538.342 260.49Z" fill="#E59500" stroke="#E5DADA" stroke-linecap="round" stroke-linejoin="round"/>
<path d="M56.3092 300.13H72.5387C87.9234 300.13 100.439 312.646 100.439 328.03V332.088C100.439 334.043 98.8375 335.644 96.8824 335.645H31.9664C30.0112 335.645 28.4089 334.043 28.4088 332.088V328.03C28.4089 312.646 40.9246 300.13 56.3092 300.13ZM64.4244 255.5C69.6718 255.5 74.7042 257.585 78.4147 261.295C82.1253 265.006 84.2105 270.039 84.2106 275.286C84.2106 280.534 82.1253 285.567 78.4147 289.277C74.7042 292.988 69.6718 295.072 64.4244 295.072C59.1769 295.072 54.1439 292.988 50.4332 289.277C46.7226 285.567 44.6373 280.534 44.6373 275.286C44.6374 270.039 46.7226 265.006 50.4332 261.295C54.1438 257.584 59.1769 255.5 64.4244 255.5Z" fill="#E59500" stroke="#E5DADA"/>
<mask id="path-16-outside-2_8_55" maskUnits="userSpaceOnUse" x="46" y="347" width="36" height="15" fill="black">
<rect fill="white" x="46" y="347" width="36" height="15"/>
<path d="M51.4266 360.192C50.5839 360.192 49.8426 360.016 49.2026 359.664C48.5626 359.312 48.0666 358.832 47.7146 358.224C47.3626 357.605 47.1866 356.901 47.1866 356.112V348.08H48.4666V356.112C48.4666 356.688 48.5892 357.195 48.8346 357.632C49.0906 358.059 49.4372 358.395 49.8746 358.64C50.3226 358.875 50.8399 358.992 51.4266 358.992C52.0132 358.992 52.5252 358.875 52.9626 358.64C53.4106 358.395 53.7572 358.059 54.0026 357.632C54.2586 357.195 54.3866 356.688 54.3866 356.112V348.08H55.6666V356.112C55.6666 356.901 55.4906 357.605 55.1386 358.224C54.7866 358.832 54.2906 359.312 53.6506 359.664C53.0212 360.016 52.2799 360.192 51.4266 360.192ZM61.2377 360.192C60.4164 360.192 59.6964 359.984 59.0777 359.568C58.459 359.152 58.011 358.587 57.7337 357.872L58.7417 357.392C58.987 357.915 59.3284 358.331 59.7657 358.64C60.2137 358.949 60.7044 359.104 61.2377 359.104C61.7497 359.104 62.1817 358.981 62.5337 358.736C62.8857 358.48 63.0617 358.149 63.0617 357.744C63.0617 357.445 62.9764 357.211 62.8057 357.04C62.635 356.859 62.4377 356.72 62.2137 356.624C61.9897 356.528 61.7924 356.459 61.6217 356.416L60.3897 356.064C59.6004 355.84 59.0297 355.525 58.6777 355.12C58.3257 354.715 58.1497 354.245 58.1497 353.712C58.1497 353.211 58.2777 352.773 58.5337 352.4C58.7897 352.027 59.1364 351.739 59.5737 351.536C60.011 351.333 60.4964 351.232 61.0297 351.232C61.755 351.232 62.411 351.424 62.9977 351.808C63.595 352.181 64.0164 352.704 64.2617 353.376L63.2377 353.856C63.0244 353.376 62.715 353.003 62.3097 352.736C61.915 352.459 61.4724 352.32 60.9817 352.32C60.5017 352.32 60.1177 352.443 59.8297 352.688C59.5417 352.933 59.3977 353.243 59.3977 353.616C59.3977 353.904 59.4724 354.133 59.6217 354.304C59.771 354.475 59.9417 354.603 60.1337 354.688C60.3364 354.773 60.5124 354.837 60.6617 354.88L62.0857 355.296C62.779 355.499 63.3177 355.813 63.7017 356.24C64.0964 356.667 64.2937 357.168 64.2937 357.744C64.2937 358.213 64.1604 358.635 63.8937 359.008C63.6377 359.381 63.2804 359.675 62.8217 359.888C62.363 360.091 61.835 360.192 61.2377 360.192ZM70.3063 360.192C69.5063 360.192 68.781 360 68.1303 359.616C67.4903 359.221 66.9837 358.683 66.6103 358C66.237 357.317 66.0503 356.544 66.0503 355.68C66.0503 354.816 66.2317 354.053 66.5943 353.392C66.957 352.72 67.4477 352.192 68.0663 351.808C68.6957 351.424 69.3997 351.232 70.1783 351.232C70.797 351.232 71.3463 351.349 71.8263 351.584C72.317 351.808 72.733 352.117 73.0743 352.512C73.4157 352.896 73.677 353.333 73.8583 353.824C74.0397 354.304 74.1303 354.8 74.1303 355.312C74.1303 355.419 74.125 355.541 74.1143 355.68C74.1037 355.808 74.0877 355.941 74.0663 356.08H66.8183V354.96H73.3783L72.8023 355.44C72.8983 354.853 72.829 354.331 72.5943 353.872C72.3703 353.403 72.045 353.035 71.6183 352.768C71.1917 352.491 70.7117 352.352 70.1783 352.352C69.645 352.352 69.149 352.491 68.6903 352.768C68.2423 353.045 67.8903 353.435 67.6343 353.936C67.3783 354.427 67.277 355.013 67.3303 355.696C67.277 356.379 67.3837 356.976 67.6503 357.488C67.9277 357.989 68.301 358.379 68.7703 358.656C69.2503 358.933 69.7623 359.072 70.3063 359.072C70.9357 359.072 71.4637 358.923 71.8903 358.624C72.317 358.325 72.6637 357.952 72.9303 357.504L73.9543 358.048C73.7837 358.432 73.5223 358.789 73.1703 359.12C72.8183 359.44 72.397 359.701 71.9063 359.904C71.4263 360.096 70.893 360.192 70.3063 360.192ZM76.2461 360V351.424H77.4461V352.832L77.2861 352.624C77.4887 352.219 77.7927 351.899 78.1981 351.664C78.6141 351.429 79.1154 351.312 79.7021 351.312H80.2461V352.512H79.4941C78.8754 352.512 78.3794 352.704 78.0061 353.088C77.6327 353.472 77.4461 354.016 77.4461 354.72V360H76.2461Z"/>
</mask>
<path d="M51.4266 360.192C50.5839 360.192 49.8426 360.016 49.2026 359.664C48.5626 359.312 48.0666 358.832 47.7146 358.224C47.3626 357.605 47.1866 356.901 47.1866 356.112V348.08H48.4666V356.112C48.4666 356.688 48.5892 357.195 48.8346 357.632C49.0906 358.059 49.4372 358.395 49.8746 358.64C50.3226 358.875 50.8399 358.992 51.4266 358.992C52.0132 358.992 52.5252 358.875 52.9626 358.64C53.4106 358.395 53.7572 358.059 54.0026 357.632C54.2586 357.195 54.3866 356.688 54.3866 356.112V348.08H55.6666V356.112C55.6666 356.901 55.4906 357.605 55.1386 358.224C54.7866 358.832 54.2906 359.312 53.6506 359.664C53.0212 360.016 52.2799 360.192 51.4266 360.192ZM61.2377 360.192C60.4164 360.192 59.6964 359.984 59.0777 359.568C58.459 359.152 58.011 358.587 57.7337 357.872L58.7417 357.392C58.987 357.915 59.3284 358.331 59.7657 358.64C60.2137 358.949 60.7044 359.104 61.2377 359.104C61.7497 359.104 62.1817 358.981 62.5337 358.736C62.8857 358.48 63.0617 358.149 63.0617 357.744C63.0617 357.445 62.9764 357.211 62.8057 357.04C62.635 356.859 62.4377 356.72 62.2137 356.624C61.9897 356.528 61.7924 356.459 61.6217 356.416L60.3897 356.064C59.6004 355.84 59.0297 355.525 58.6777 355.12C58.3257 354.715 58.1497 354.245 58.1497 353.712C58.1497 353.211 58.2777 352.773 58.5337 352.4C58.7897 352.027 59.1364 351.739 59.5737 351.536C60.011 351.333 60.4964 351.232 61.0297 351.232C61.755 351.232 62.411 351.424 62.9977 351.808C63.595 352.181 64.0164 352.704 64.2617 353.376L63.2377 353.856C63.0244 353.376 62.715 353.003 62.3097 352.736C61.915 352.459 61.4724 352.32 60.9817 352.32C60.5017 352.32 60.1177 352.443 59.8297 352.688C59.5417 352.933 59.3977 353.243 59.3977 353.616C59.3977 353.904 59.4724 354.133 59.6217 354.304C59.771 354.475 59.9417 354.603 60.1337 354.688C60.3364 354.773 60.5124 354.837 60.6617 354.88L62.0857 355.296C62.779 355.499 63.3177 355.813 63.7017 356.24C64.0964 356.667 64.2937 357.168 64.2937 357.744C64.2937 358.213 64.1604 358.635 63.8937 359.008C63.6377 359.381 63.2804 359.675 62.8217 359.888C62.363 360.091 61.835 360.192 61.2377 360.192ZM70.3063 360.192C69.5063 360.192 68.781 360 68.1303 359.616C67.4903 359.221 66.9837 358.683 66.6103 358C66.237 357.317 66.0503 356.544 66.0503 355.68C66.0503 354.816 66.2317 354.053 66.5943 353.392C66.957 352.72 67.4477 352.192 68.0663 351.808C68.6957 351.424 69.3997 351.232 70.1783 351.232C70.797 351.232 71.3463 351.349 71.8263 351.584C72.317 351.808 72.733 352.117 73.0743 352.512C73.4157 352.896 73.677 353.333 73.8583 353.824C74.0397 354.304 74.1303 354.8 74.1303 355.312C74.1303 355.419 74.125 355.541 74.1143 355.68C74.1037 355.808 74.0877 355.941 74.0663 356.08H66.8183V354.96H73.3783L72.8023 355.44C72.8983 354.853 72.829 354.331 72.5943 353.872C72.3703 353.403 72.045 353.035 71.6183 352.768C71.1917 352.491 70.7117 352.352 70.1783 352.352C69.645 352.352 69.149 352.491 68.6903 352.768C68.2423 353.045 67.8903 353.435 67.6343 353.936C67.3783 354.427 67.277 355.013 67.3303 355.696C67.277 356.379 67.3837 356.976 67.6503 357.488C67.9277 357.989 68.301 358.379 68.7703 358.656C69.2503 358.933 69.7623 359.072 70.3063 359.072C70.9357 359.072 71.4637 358.923 71.8903 358.624C72.317 358.325 72.6637 357.952 72.9303 357.504L73.9543 358.048C73.7837 358.432 73.5223 358.789 73.1703 359.12C72.8183 359.44 72.397 359.701 71.9063 359.904C71.4263 360.096 70.893 360.192 70.3063 360.192ZM76.2461 360V351.424H77.4461V352.832L77.2861 352.624C77.4887 352.219 77.7927 351.899 78.1981 351.664C78.6141 351.429 79.1154 351.312 79.7021 351.312H80.2461V352.512H79.4941C78.8754 352.512 78.3794 352.704 78.0061 353.088C77.6327 353.472 77.4461 354.016 77.4461 354.72V360H76.2461Z" fill="white"/>
<path d="M49.2026 359.664L48.7207 360.54H48.7207L49.2026 359.664ZM47.7146 358.224L46.8454 358.719L46.8491 358.725L47.7146 358.224ZM47.1866 348.08V347.08H46.1866V348.08H47.1866ZM48.4666 348.08H49.4666V347.08H48.4666V348.08ZM48.8346 357.632L47.9624 358.121L47.9696 358.134L47.9771 358.146L48.8346 357.632ZM49.8746 358.64L49.3853 359.512L49.3978 359.519L49.4106 359.526L49.8746 358.64ZM52.9626 358.64L53.4354 359.521L53.4429 359.517L52.9626 358.64ZM54.0026 357.632L53.1395 357.127L53.1357 357.134L54.0026 357.632ZM54.3866 348.08V347.08H53.3866V348.08H54.3866ZM55.6666 348.08H56.6666V347.08H55.6666V348.08ZM55.1386 358.224L56.004 358.725L56.0077 358.719L55.1386 358.224ZM53.6506 359.664L53.1686 358.788L53.1624 358.791L53.6506 359.664ZM51.4266 360.192V359.192C50.7263 359.192 50.1555 359.047 49.6845 358.788L49.2026 359.664L48.7207 360.54C49.5296 360.985 50.4415 361.192 51.4266 361.192V360.192ZM49.2026 359.664L49.6845 358.788C49.1975 358.52 48.837 358.167 48.58 357.723L47.7146 358.224L46.8491 358.725C47.2961 359.497 47.9277 360.104 48.7207 360.54L49.2026 359.664ZM47.7146 358.224L48.5837 357.729C48.3266 357.277 48.1866 356.747 48.1866 356.112H47.1866H46.1866C46.1866 357.055 46.3986 357.933 46.8454 358.719L47.7146 358.224ZM47.1866 356.112H48.1866V348.08H47.1866H46.1866V356.112H47.1866ZM47.1866 348.08V349.08H48.4666V348.08V347.08H47.1866V348.08ZM48.4666 348.08H47.4666V356.112H48.4666H49.4666V348.08H48.4666ZM48.4666 356.112H47.4666C47.4666 356.834 47.6215 357.514 47.9624 358.121L48.8346 357.632L49.7067 357.143C49.557 356.876 49.4666 356.542 49.4666 356.112H48.4666ZM48.8346 357.632L47.9771 358.146C48.3233 358.724 48.7975 359.182 49.3853 359.512L49.8746 358.64L50.3638 357.768C50.077 357.607 49.8578 357.394 49.6921 357.118L48.8346 357.632ZM49.8746 358.64L49.4106 359.526C50.0231 359.847 50.7042 359.992 51.4266 359.992V358.992V357.992C50.9756 357.992 50.6221 357.903 50.3386 357.754L49.8746 358.64ZM51.4266 358.992V359.992C52.1482 359.992 52.8283 359.847 53.4354 359.521L52.9626 358.64L52.4898 357.759C52.2221 357.902 51.8783 357.992 51.4266 357.992V358.992ZM52.9626 358.64L53.4429 359.517C54.0457 359.187 54.529 358.723 54.8695 358.13L54.0026 357.632L53.1357 357.134C52.9855 357.395 52.7754 357.602 52.4823 357.763L52.9626 358.64ZM54.0026 357.632L54.8656 358.137C55.223 357.527 55.3866 356.841 55.3866 356.112H54.3866H53.3866C53.3866 356.535 53.2941 356.863 53.1396 357.127L54.0026 357.632ZM54.3866 356.112H55.3866V348.08H54.3866H53.3866V356.112H54.3866ZM54.3866 348.08V349.08H55.6666V348.08V347.08H54.3866V348.08ZM55.6666 348.08H54.6666V356.112H55.6666H56.6666V348.08H55.6666ZM55.6666 356.112H54.6666C54.6666 356.747 54.5266 357.277 54.2694 357.729L55.1386 358.224L56.0077 358.719C56.4546 357.933 56.6666 357.055 56.6666 356.112H55.6666ZM55.1386 358.224L54.2731 357.723C54.0161 358.167 53.6557 358.52 53.1687 358.788L53.6506 359.664L54.1325 360.54C54.9255 360.104 55.557 359.497 56.004 358.725L55.1386 358.224ZM53.6506 359.664L53.1624 358.791C52.7075 359.046 52.1404 359.192 51.4266 359.192V360.192V361.192C52.4194 361.192 53.335 360.986 54.1387 360.537L53.6506 359.664ZM59.0777 359.568L59.6357 358.738H59.6357L59.0777 359.568ZM57.7337 357.872L57.3038 356.969L56.4656 357.368L56.8014 358.234L57.7337 357.872ZM58.7417 357.392L59.6469 356.967L59.2197 356.057L58.3118 356.489L58.7417 357.392ZM59.7657 358.64L59.1882 359.456L59.1975 359.463L59.7657 358.64ZM62.5337 358.736L63.1055 359.556L63.1137 359.551L63.1219 359.545L62.5337 358.736ZM62.8057 357.04L62.0775 357.725L62.0879 357.736L62.0986 357.747L62.8057 357.04ZM62.2137 356.624L61.8198 357.543V357.543L62.2137 356.624ZM61.6217 356.416L61.347 357.378L61.363 357.382L61.3792 357.386L61.6217 356.416ZM60.3897 356.064L60.6644 355.102L60.6627 355.102L60.3897 356.064ZM58.6777 355.12L57.9227 355.776V355.776L58.6777 355.12ZM58.5337 352.4L59.3584 352.966L59.3584 352.966L58.5337 352.4ZM59.5737 351.536L59.9942 352.443V352.443L59.5737 351.536ZM62.9977 351.808L62.45 352.645L62.4588 352.65L62.4677 352.656L62.9977 351.808ZM64.2617 353.376L64.6861 354.281L65.515 353.893L65.2011 353.033L64.2617 353.376ZM63.2377 353.856L62.3239 354.262L62.7383 355.195L63.6621 354.761L63.2377 353.856ZM62.3097 352.736L61.7348 353.554L61.7473 353.563L61.7601 353.571L62.3097 352.736ZM59.8297 352.688L60.4782 353.449H60.4782L59.8297 352.688ZM59.6217 354.304L58.8691 354.963V354.963L59.6217 354.304ZM60.1337 354.688L59.7276 355.602L59.7366 355.606L59.7456 355.61L60.1337 354.688ZM60.6617 354.88L60.9421 353.92L60.9364 353.918L60.6617 354.88ZM62.0857 355.296L62.3663 354.336L62.3661 354.336L62.0857 355.296ZM63.7017 356.24L62.9583 356.909L62.9676 356.919L63.7017 356.24ZM63.8937 359.008L63.08 358.427L63.0744 358.435L63.069 358.442L63.8937 359.008ZM62.8217 359.888L63.2259 360.803L63.2347 360.799L63.2434 360.795L62.8217 359.888ZM61.2377 360.192V359.192C60.5941 359.192 60.0728 359.032 59.6357 358.738L59.0777 359.568L58.5197 360.398C59.32 360.936 60.2386 361.192 61.2377 361.192V360.192ZM59.0777 359.568L59.6357 358.738C59.1917 358.44 58.8716 358.04 58.666 357.51L57.7337 357.872L56.8014 358.234C57.1505 359.133 57.7263 359.864 58.5197 360.398L59.0777 359.568ZM57.7337 357.872L58.1636 358.775L59.1716 358.295L58.7417 357.392L58.3118 356.489L57.3038 356.969L57.7337 357.872ZM58.7417 357.392L57.8365 357.817C58.1494 358.484 58.5987 359.039 59.1882 359.456L59.7657 358.64L60.3432 357.824C60.0581 357.622 59.8246 357.346 59.6469 356.967L58.7417 357.392ZM59.7657 358.64L59.1975 359.463C59.8088 359.885 60.4969 360.104 61.2377 360.104V359.104V358.104C60.9118 358.104 60.6186 358.014 60.3339 357.817L59.7657 358.64ZM61.2377 359.104V360.104C61.9138 360.104 62.5554 359.94 63.1055 359.556L62.5337 358.736L61.9619 357.916C61.808 358.023 61.5856 358.104 61.2377 358.104V359.104ZM62.5337 358.736L63.1219 359.545C63.7103 359.117 64.0617 358.496 64.0617 357.744H63.0617H62.0617C62.0617 357.797 62.0517 357.817 62.0469 357.826C62.0409 357.838 62.0187 357.874 61.9455 357.927L62.5337 358.736ZM63.0617 357.744H64.0617C64.0617 357.247 63.9134 356.734 63.5128 356.333L62.8057 357.04L62.0986 357.747C62.0892 357.738 62.0801 357.726 62.0722 357.714C62.0644 357.702 62.06 357.692 62.0579 357.686C62.0538 357.674 62.0617 357.689 62.0617 357.744H63.0617ZM62.8057 357.04L63.5339 356.355C63.2712 356.075 62.9607 355.856 62.6076 355.705L62.2137 356.624L61.8198 357.543C61.9147 357.584 61.9989 357.642 62.0775 357.725L62.8057 357.04ZM62.2137 356.624L62.6076 355.705C62.3518 355.595 62.1021 355.505 61.8642 355.446L61.6217 356.416L61.3792 357.386C61.4826 357.412 61.6276 357.461 61.8198 357.543L62.2137 356.624ZM61.6217 356.416L61.8964 355.454L60.6644 355.102L60.3897 356.064L60.115 357.026L61.347 357.378L61.6217 356.416ZM60.3897 356.064L60.6627 355.102C59.9685 354.905 59.6065 354.664 59.4327 354.464L58.6777 355.12L57.9227 355.776C58.4529 356.386 59.2322 356.775 60.1167 357.026L60.3897 356.064ZM58.6777 355.12L59.4327 354.464C59.2376 354.24 59.1497 354.003 59.1497 353.712H58.1497H57.1497C57.1497 354.488 57.4138 355.19 57.9227 355.776L58.6777 355.12ZM58.1497 353.712H59.1497C59.1497 353.39 59.2288 353.155 59.3584 352.966L58.5337 352.4L57.709 351.834C57.3266 352.392 57.1497 353.031 57.1497 353.712H58.1497ZM58.5337 352.4L59.3584 352.966C59.5062 352.75 59.7089 352.576 59.9942 352.443L59.5737 351.536L59.1532 350.629C58.5639 350.902 58.0732 351.303 57.709 351.834L58.5337 352.4ZM59.5737 351.536L59.9942 352.443C60.2863 352.308 60.626 352.232 61.0297 352.232V351.232V350.232C60.3667 350.232 59.7358 350.359 59.1532 350.629L59.5737 351.536ZM61.0297 351.232V352.232C61.5676 352.232 62.032 352.371 62.45 352.645L62.9977 351.808L63.5454 350.971C62.7901 350.477 61.9425 350.232 61.0297 350.232V351.232ZM62.9977 351.808L62.4677 352.656C62.873 352.909 63.1521 353.253 63.3223 353.719L64.2617 353.376L65.2011 353.033C64.8806 352.155 64.3171 351.453 63.5277 350.96L62.9977 351.808ZM64.2617 353.376L63.8373 352.471L62.8133 352.951L63.2377 353.856L63.6621 354.761L64.6861 354.281L64.2617 353.376ZM63.2377 353.856L64.1515 353.45C63.8671 352.81 63.4379 352.281 62.8593 351.901L62.3097 352.736L61.7601 353.571C61.9922 353.724 62.1816 353.942 62.3239 354.262L63.2377 353.856ZM62.3097 352.736L62.8846 351.918C62.3185 351.52 61.6744 351.32 60.9817 351.32V352.32V353.32C61.2704 353.32 61.5115 353.397 61.7348 353.554L62.3097 352.736ZM60.9817 352.32V351.32C60.3296 351.32 59.6945 351.49 59.1812 351.927L59.8297 352.688L60.4782 353.449C60.5409 353.396 60.6738 353.32 60.9817 353.32V352.32ZM59.8297 352.688L59.1812 351.927C58.6736 352.359 58.3977 352.945 58.3977 353.616H59.3977H60.3977C60.3977 353.561 60.4074 353.536 60.4123 353.526C60.4173 353.515 60.4316 353.489 60.4782 353.449L59.8297 352.688ZM59.3977 353.616H58.3977C58.3977 354.079 58.5209 354.565 58.8691 354.963L59.6217 354.304L60.3743 353.645C60.3832 353.656 60.3906 353.666 60.3962 353.676C60.4017 353.686 60.4041 353.693 60.4046 353.694C60.4054 353.697 60.3977 353.675 60.3977 353.616H59.3977ZM59.6217 354.304L58.8691 354.963C59.1063 355.234 59.3926 355.453 59.7276 355.602L60.1337 354.688L60.5398 353.774C60.4908 353.752 60.4357 353.716 60.3743 353.645L59.6217 354.304ZM60.1337 354.688L59.7456 355.61C59.9714 355.705 60.1869 355.784 60.387 355.842L60.6617 354.88L60.9364 353.918C60.8378 353.89 60.7013 353.842 60.5218 353.766L60.1337 354.688ZM60.6617 354.88L60.3813 355.84L61.8053 356.256L62.0857 355.296L62.3661 354.336L60.9421 353.92L60.6617 354.88ZM62.0857 355.296L61.8051 356.256C62.3659 356.42 62.727 356.652 62.9584 356.909L63.7017 356.24L64.445 355.571C63.9083 354.975 63.1922 354.578 62.3663 354.336L62.0857 355.296ZM63.7017 356.24L62.9676 356.919C63.193 357.163 63.2937 357.422 63.2937 357.744H64.2937H65.2937C65.2937 356.914 64.9997 356.171 64.4358 355.561L63.7017 356.24ZM64.2937 357.744H63.2937C63.2937 358.01 63.2225 358.227 63.08 358.427L63.8937 359.008L64.7074 359.589C65.0982 359.042 65.2937 358.417 65.2937 357.744H64.2937ZM63.8937 359.008L63.069 358.442C62.9258 358.651 62.7157 358.834 62.4 358.981L62.8217 359.888L63.2434 360.795C63.845 360.515 64.3495 360.111 64.7184 359.574L63.8937 359.008ZM62.8217 359.888L62.4175 358.973C62.1081 359.11 61.722 359.192 61.2377 359.192V360.192V361.192C61.948 361.192 62.6179 361.071 63.2259 360.803L62.8217 359.888ZM68.1303 359.616L67.6054 360.467L67.6137 360.472L67.6221 360.477L68.1303 359.616ZM66.6103 358L65.733 358.48V358.48L66.6103 358ZM66.5943 353.392L67.4712 353.873L67.4743 353.867L66.5943 353.392ZM68.0663 351.808L67.5454 350.954L67.539 350.958L68.0663 351.808ZM71.8263 351.584L71.3871 352.482L71.399 352.488L71.411 352.494L71.8263 351.584ZM73.0743 352.512L72.3179 353.166L72.3269 353.176L73.0743 352.512ZM73.8583 353.824L72.9203 354.171L72.9228 354.177L73.8583 353.824ZM74.1143 355.68L75.1109 355.763L75.1114 355.757L74.1143 355.68ZM74.0663 356.08V357.08H74.9242L75.0547 356.232L74.0663 356.08ZM66.8183 356.08H65.8183V357.08H66.8183V356.08ZM66.8183 354.96V353.96H65.8183V354.96H66.8183ZM73.3783 354.96L74.0185 355.728L76.1404 353.96H73.3783V354.96ZM72.8023 355.44L71.8154 355.279L71.3824 357.925L73.4425 356.208L72.8023 355.44ZM72.5943 353.872L71.6918 354.303L71.6978 354.315L71.7041 354.327L72.5943 353.872ZM71.6183 352.768L71.0733 353.606L71.0808 353.611L71.0883 353.616L71.6183 352.768ZM68.6903 352.768L68.1729 351.912L68.164 351.918L68.6903 352.768ZM67.6343 353.936L68.5209 354.399L68.5249 354.391L67.6343 353.936ZM67.3303 355.696L68.3273 355.774L68.3334 355.696L68.3273 355.618L67.3303 355.696ZM67.6503 357.488L66.7634 357.95L66.7692 357.961L66.7753 357.972L67.6503 357.488ZM68.7703 358.656L68.2616 359.517L68.27 359.522L68.7703 358.656ZM71.8903 358.624L72.4638 359.443V359.443L71.8903 358.624ZM72.9303 357.504L73.3995 356.621L72.5583 356.174L72.071 356.993L72.9303 357.504ZM73.9543 358.048L74.8681 358.454L75.2467 357.602L74.4235 357.165L73.9543 358.048ZM73.1703 359.12L73.843 359.86L73.849 359.854L73.855 359.849L73.1703 359.12ZM71.9063 359.904L72.2777 360.833L72.2881 360.828L71.9063 359.904ZM70.3063 360.192V359.192C69.6742 359.192 69.1261 359.043 68.6386 358.755L68.1303 359.616L67.6221 360.477C68.4359 360.957 69.3385 361.192 70.3063 361.192V360.192ZM68.1303 359.616L68.6552 358.765C68.1682 358.465 67.7808 358.056 67.4877 357.52L66.6103 358L65.733 358.48C66.1865 359.309 66.8124 359.978 67.6054 360.467L68.1303 359.616ZM66.6103 358L67.4877 357.52C67.2034 357 67.0503 356.395 67.0503 355.68H66.0503H65.0503C65.0503 356.693 65.2706 357.634 65.733 358.48L66.6103 358ZM66.0503 355.68H67.0503C67.0503 354.959 67.2004 354.367 67.4711 353.873L66.5943 353.392L65.7175 352.911C65.2629 353.74 65.0503 354.673 65.0503 355.68H66.0503ZM66.5943 353.392L67.4743 353.867C67.7584 353.341 68.1306 352.945 68.5937 352.658L68.0663 351.808L67.539 350.958C66.7647 351.439 66.1556 352.099 65.7143 352.917L66.5943 353.392ZM68.0663 351.808L68.5872 352.662C69.0507 352.379 69.5726 352.232 70.1783 352.232V351.232V350.232C69.2267 350.232 68.3406 350.469 67.5455 350.954L68.0663 351.808ZM70.1783 351.232V352.232C70.6688 352.232 71.0639 352.324 71.3871 352.482L71.8263 351.584L72.2655 350.686C71.6287 350.374 70.9252 350.232 70.1783 350.232V351.232ZM71.8263 351.584L71.411 352.494C71.7755 352.66 72.0738 352.884 72.318 353.166L73.0743 352.512L73.8307 351.858C73.3921 351.351 72.8585 350.956 72.2416 350.674L71.8263 351.584ZM73.0743 352.512L72.3269 353.176C72.584 353.466 72.7814 353.795 72.9203 354.171L73.8583 353.824L74.7963 353.477C74.5726 352.872 74.2473 352.326 73.8217 351.848L73.0743 352.512ZM73.8583 353.824L72.9228 354.177C73.0616 354.545 73.1303 354.921 73.1303 355.312H74.1303H75.1303C75.1303 354.679 75.0177 354.063 74.7938 353.471L73.8583 353.824ZM74.1303 355.312H73.1303C73.1303 355.387 73.1265 355.483 73.1173 355.603L74.1143 355.68L75.1114 355.757C75.1235 355.6 75.1303 355.451 75.1303 355.312H74.1303ZM74.1143 355.68L73.1178 355.597C73.1092 355.7 73.0961 355.81 73.0779 355.928L74.0663 356.08L75.0547 356.232C75.0792 356.073 75.0981 355.916 75.1109 355.763L74.1143 355.68ZM74.0663 356.08V355.08H66.8183V356.08V357.08H74.0663V356.08ZM66.8183 356.08H67.8183V354.96H66.8183H65.8183V356.08H66.8183ZM66.8183 354.96V355.96H73.3783V354.96V353.96H66.8183V354.96ZM73.3783 354.96L72.7381 354.192L72.1621 354.672L72.8023 355.44L73.4425 356.208L74.0185 355.728L73.3783 354.96ZM72.8023 355.44L73.7892 355.601C73.9142 354.838 73.8309 354.094 73.4846 353.417L72.5943 353.872L71.7041 354.327C71.827 354.568 71.8825 354.869 71.8154 355.279L72.8023 355.44ZM72.5943 353.872L73.4968 353.441C73.1938 352.806 72.7419 352.291 72.1483 351.92L71.6183 352.768L71.0883 353.616C71.348 353.778 71.5469 353.999 71.6918 354.303L72.5943 353.872ZM71.6183 352.768L72.1633 351.93C71.5664 351.542 70.8953 351.352 70.1783 351.352V352.352V353.352C70.528 353.352 70.8169 353.44 71.0733 353.606L71.6183 352.768ZM70.1783 352.352V351.352C69.4616 351.352 68.7868 351.541 68.1729 351.912L68.6903 352.768L69.2077 353.624C69.5111 353.44 69.8284 353.352 70.1783 353.352V352.352ZM68.6903 352.768L68.164 351.918C67.55 352.298 67.0768 352.829 66.7437 353.481L67.6343 353.936L68.5249 354.391C68.7038 354.04 68.9346 353.793 69.2167 353.618L68.6903 352.768ZM67.6343 353.936L66.7477 353.473C66.3865 354.166 66.2689 354.949 66.3334 355.774L67.3303 355.696L68.3273 355.618C68.2851 355.078 68.3701 354.688 68.5209 354.399L67.6343 353.936ZM67.3303 355.696L66.3334 355.618C66.2682 356.452 66.3953 357.243 66.7634 357.95L67.6503 357.488L68.5372 357.026C68.372 356.709 68.2858 356.305 68.3273 355.774L67.3303 355.696ZM67.6503 357.488L66.7753 357.972C67.1344 358.621 67.6308 359.144 68.2616 359.517L68.7703 358.656L69.279 357.795C68.9712 357.613 68.721 357.358 68.5254 357.004L67.6503 357.488ZM68.7703 358.656L68.27 359.522C68.8991 359.885 69.5832 360.072 70.3063 360.072V359.072V358.072C69.9414 358.072 69.6015 357.981 69.2706 357.79L68.7703 358.656ZM70.3063 359.072V360.072C71.0973 360.072 71.8366 359.882 72.4638 359.443L71.8903 358.624L71.3169 357.805C71.0907 357.963 70.774 358.072 70.3063 358.072V359.072ZM71.8903 358.624L72.4638 359.443C73.0066 359.063 73.4506 358.585 73.7896 358.015L72.9303 357.504L72.071 356.993C71.8767 357.319 71.6274 357.587 71.3169 357.805L71.8903 358.624ZM72.9303 357.504L72.4612 358.387L73.4852 358.931L73.9543 358.048L74.4235 357.165L73.3995 356.621L72.9303 357.504ZM73.9543 358.048L73.0405 357.642C72.9314 357.887 72.7549 358.138 72.4856 358.391L73.1703 359.12L73.855 359.849C74.2897 359.44 74.6359 358.977 74.8681 358.454L73.9543 358.048ZM73.1703 359.12L72.4976 358.38C72.2406 358.614 71.9206 358.816 71.5246 358.98L71.9063 359.904L72.2881 360.828C72.8733 360.587 73.3961 360.266 73.843 359.86L73.1703 359.12ZM71.9063 359.904L71.5349 358.976C71.1879 359.114 70.7828 359.192 70.3063 359.192V360.192V361.192C71.0032 361.192 71.6647 361.078 72.2777 360.832L71.9063 359.904ZM76.2461 360H75.2461V361H76.2461V360ZM76.2461 351.424V350.424H75.2461V351.424H76.2461ZM77.4461 351.424H78.4461V350.424H77.4461V351.424ZM77.4461 352.832L76.6534 353.442L78.4461 355.772V352.832H77.4461ZM77.2861 352.624L76.3916 352.177L76.1115 352.737L76.4934 353.234L77.2861 352.624ZM78.1981 351.664L77.7067 350.793L77.697 350.799L78.1981 351.664ZM80.2461 351.312H81.2461V350.312H80.2461V351.312ZM80.2461 352.512V353.512H81.2461V352.512H80.2461ZM78.0061 353.088L78.7231 353.785V353.785L78.0061 353.088ZM77.4461 360V361H78.4461V360H77.4461ZM76.2461 360H77.2461V351.424H76.2461H75.2461V360H76.2461ZM76.2461 351.424V352.424H77.4461V351.424V350.424H76.2461V351.424ZM77.4461 351.424H76.4461V352.832H77.4461H78.4461V351.424H77.4461ZM77.4461 352.832L78.2387 352.222L78.0787 352.014L77.2861 352.624L76.4934 353.234L76.6534 353.442L77.4461 352.832ZM77.2861 352.624L78.1805 353.071C78.2927 352.847 78.457 352.67 78.6991 352.529L78.1981 351.664L77.697 350.799C77.1285 351.128 76.6848 351.59 76.3916 352.177L77.2861 352.624ZM78.1981 351.664L78.6894 352.535C78.9248 352.402 79.2486 352.312 79.7021 352.312V351.312V350.312C78.9822 350.312 78.3033 350.456 77.7067 350.793L78.1981 351.664ZM79.7021 351.312V352.312H80.2461V351.312V350.312H79.7021V351.312ZM80.2461 351.312H79.2461V352.512H80.2461H81.2461V351.312H80.2461ZM80.2461 352.512V351.512H79.4941V352.512V353.512H80.2461V352.512ZM79.4941 352.512V351.512C78.6509 351.512 77.8803 351.783 77.2891 352.391L78.0061 353.088L78.7231 353.785C78.8785 353.625 79.0999 353.512 79.4941 353.512V352.512ZM78.0061 353.088L77.2891 352.391C76.6828 353.015 76.4461 353.84 76.4461 354.72H77.4461H78.4461C78.4461 354.192 78.5827 353.929 78.7231 353.785L78.0061 353.088ZM77.4461 354.72H76.4461V360H77.4461H78.4461V354.72H77.4461ZM77.4461 360V359H76.2461V360V361H77.4461V360Z" fill="black" mask="url(#path-16-outside-2_8_55)"/>
<path d="M349.293 299.293C348.902 299.683 348.902 300.317 349.293 300.707L355.657 307.071C356.047 307.462 356.681 307.462 357.071 307.071C357.462 306.681 357.462 306.047 357.071 305.657L351.414 300L357.071 294.343C357.462 293.953 357.462 293.319 357.071 292.929C356.681 292.538 356.047 292.538 355.657 292.929L349.293 299.293ZM450.707 300.707C451.098 300.317 451.098 299.683 450.707 299.293L444.343 292.929C443.953 292.538 443.319 292.538 442.929 292.929C442.538 293.319 442.538 293.953 442.929 294.343L448.586 300L442.929 305.657C442.538 306.047 442.538 306.681 442.929 307.071C443.319 307.462 443.953 307.462 444.343 307.071L450.707 300.707ZM350 300V301H450V300V299H350V300Z" fill="white"/>
<path d="M123.293 506.293C122.902 506.683 122.902 507.317 123.293 507.707L129.657 514.071C130.047 514.462 130.681 514.462 131.071 514.071C131.462 513.681 131.462 513.047 131.071 512.657L125.414 507L131.071 501.343C131.462 500.953 131.462 500.319 131.071 499.929C130.681 499.538 130.047 499.538 129.657 499.929L123.293 506.293ZM224.707 507.707C225.098 507.317 225.098 506.683 224.707 506.293L218.343 499.929C217.953 499.538 217.319 499.538 216.929 499.929C216.538 500.319 216.538 500.953 216.929 501.343L222.586 507L216.929 512.657C216.538 513.047 216.538 513.681 216.929 514.071C217.319 514.462 217.953 514.462 218.343 514.071L224.707 507.707ZM124 507V508H224V507V506H124V507Z" fill="white"/>
<path d="M287.293 445.707C287.683 446.098 288.317 446.098 288.707 445.707L295.071 439.343C295.462 438.953 295.462 438.319 295.071 437.929C294.681 437.538 294.047 437.538 293.657 437.929L288 443.586L282.343 437.929C281.953 437.538 281.319 437.538 280.929 437.929C280.538 438.319 280.538 438.953 280.929 439.343L287.293 445.707ZM288.707 378.293C288.317 377.902 287.683 377.902 287.293 378.293L280.929 384.657C280.538 385.047 280.538 385.681 280.929 386.071C281.319 386.462 281.953 386.462 282.343 386.071L288 380.414L293.657 386.071C294.047 386.462 294.681 386.462 295.071 386.071C295.462 385.681 295.462 385.047 295.071 384.657L288.707 378.293ZM288 445H289V379H288H287V445H288Z" fill="white"/>
<path d="M100.002 444.937C99.9673 445.488 100.386 445.963 100.937 445.998L109.919 446.564C110.471 446.599 110.945 446.18 110.98 445.629C111.015 445.077 110.596 444.603 110.045 444.568L102.061 444.065L102.564 436.081C102.599 435.529 102.18 435.055 101.629 435.02C101.077 434.985 100.603 435.404 100.568 435.955L100.002 444.937ZM236.998 326.063C237.033 325.512 236.614 325.037 236.063 325.002L227.081 324.436C226.529 324.401 226.054 324.82 226.02 325.371C225.985 325.923 226.404 326.397 226.955 326.432L234.939 326.935L234.436 334.919C234.401 335.471 234.82 335.946 235.371 335.98C235.923 336.015 236.397 335.596 236.432 335.045L236.998 326.063ZM101 445L101.661 445.75L236.661 326.75L236 326L235.339 325.25L100.339 444.25L101 445Z" fill="white"/>
<path d="M514.293 445.707C514.683 446.098 515.317 446.098 515.707 445.707L522.071 439.343C522.462 438.953 522.462 438.319 522.071 437.929C521.681 437.538 521.047 437.538 520.657 437.929L515 443.586L509.343 437.929C508.953 437.538 508.319 437.538 507.929 437.929C507.538 438.319 507.538 438.953 507.929 439.343L514.293 445.707ZM515.707 378.293C515.317 377.902 514.683 377.902 514.293 378.293L507.929 384.657C507.538 385.047 507.538 385.681 507.929 386.071C508.319 386.462 508.953 386.462 509.343 386.071L515 380.414L520.657 386.071C521.047 386.462 521.681 386.462 522.071 386.071C522.462 385.681 522.462 385.047 522.071 384.657L515.707 378.293ZM515 445H516V379H515H514V445H515Z" fill="white"/>
<path d="M225.707 300.707C226.098 300.317 226.098 299.683 225.707 299.293L219.343 292.929C218.953 292.538 218.319 292.538 217.929 292.929C217.538 293.319 217.538 293.953 217.929 294.343L223.586 300L217.929 305.657C217.538 306.047 217.538 306.681 217.929 307.071C218.319 307.462 218.953 307.462 219.343 307.071L225.707 300.707ZM125 300V301H225V300V299H125V300Z" fill="white"/>
<path d="M288.707 169.293C288.317 168.902 287.683 168.902 287.293 169.293L280.929 175.657C280.538 176.047 280.538 176.681 280.929 177.071C281.319 177.462 281.953 177.462 282.343 177.071L288 171.414L293.657 177.071C294.047 177.462 294.681 177.462 295.071 177.071C295.462 176.681 295.462 176.047 295.071 175.657L288.707 169.293ZM288 237H289V170H288H287V237H288Z" fill="white"/>
</svg>
